<svg id="圖層_6" data-name="圖層 6" xmlns="http://www.w3.org/2000/svg" viewBox="0 0 397.68 447"><defs><style>.cls-1{fill:#fff;}</style></defs><path class="cls-1" d="M320.43,355.76" transform="translate(-98.8 -190.42)"/><polygon class="cls-1" points="118.27 0.38 0 118.77 137.66 120.02 138.91 257.68 257.3 139.41 257.3 0.38 118.27 0.38"/><path class="cls-1" d="M130.62,529.41" transform="translate(-98.8 -190.42)"/><path class="cls-1" d="M496.48,190.42,344.81,341.27l11.28-10.64h0V438.82l-.26,9a59.64,59.64,0,0,1-117.1,9.42,75.47,75.47,0,0,1-1.27-9.22l-99.3,98.77c33.16,54.15,95.24,90.6,166.37,90.6,106,0,192-81,192-180.84,0-1.71,0-3.42-.09-5.12h.09Z" transform="translate(-98.8 -190.42)"/></svg>