<?xml version="1.0" encoding="utf-8"?>
<!-- Generator: Adobe Illustrator 25.0.1, SVG Export Plug-In . SVG Version: 6.00 Build 0)  -->
<svg version="1.1" id="圖層_1" xmlns="http://www.w3.org/2000/svg" xmlns:xlink="http://www.w3.org/1999/xlink" x="0px" y="0px"
	 viewBox="0 0 579.1 500" style="enable-background:new 0 0 579.1 500;" xml:space="preserve">
<style type="text/css">
	.st0{clip-path:url(#SVGID_2_);}
	.st1{fill:url(#SVGID_3_);}
	.st2{fill:url(#SVGID_4_);}
	.st3{fill:url(#SVGID_5_);}
	.st4{fill:url(#SVGID_6_);}
	.st5{fill:url(#SVGID_7_);}
	.st6{fill:url(#SVGID_8_);}
	.st7{fill:url(#SVGID_9_);}
	.st8{fill:url(#SVGID_10_);}
	.st9{fill:#FFFFFF;}
	.st10{fill:#FCFCFA;}
	.st11{fill:url(#SVGID_11_);}
	.st12{fill:url(#SVGID_12_);}
	.st13{fill:url(#SVGID_13_);}
	.st14{fill:url(#SVGID_14_);}
	.st15{fill:url(#SVGID_15_);}
	.st16{fill:url(#SVGID_16_);}
	.st17{fill:url(#SVGID_17_);}
	.st18{fill:#BBE4FF;}
	.st19{fill:#0096EA;}
	.st20{fill:#080749;}
	.st21{fill:#F1BF9C;}
	.st22{fill:url(#SVGID_18_);}
	.st23{fill:url(#SVGID_19_);}
	.st24{fill:#070644;}
	.st25{fill:url(#SVGID_20_);}
	.st26{fill:#191968;}
	.st27{opacity:0.33;fill:url(#SVGID_21_);enable-background:new    ;}
	.st28{opacity:0.33;fill:url(#SVGID_22_);enable-background:new    ;}
	.st29{fill:#150B6D;}
	.st30{fill:url(#SVGID_23_);}
	.st31{fill:url(#SVGID_24_);}
	.st32{fill:url(#SVGID_25_);}
	.st33{fill:url(#SVGID_26_);}
	.st34{fill:url(#SVGID_27_);}
	.st35{fill:url(#SVGID_28_);}
	.st36{fill:url(#SVGID_29_);}
	.st37{fill:url(#SVGID_30_);}
	.st38{fill:url(#SVGID_31_);}
	.st39{fill:url(#SVGID_32_);}
	.st40{fill:url(#SVGID_33_);}
	.st41{fill:url(#SVGID_34_);}
	.st42{fill:url(#SVGID_35_);}
	.st43{fill:url(#SVGID_36_);}
	.st44{fill:url(#SVGID_37_);}
	.st45{fill:url(#SVGID_38_);}
	.st46{fill:none;stroke:url(#SVGID_39_);stroke-linecap:round;stroke-linejoin:round;stroke-dasharray:2.01,4.02;}
	.st47{fill:url(#SVGID_40_);}
	.st48{fill:url(#SVGID_41_);}
	.st49{fill:url(#SVGID_42_);}
	.st50{fill:none;stroke:url(#SVGID_43_);stroke-linecap:round;stroke-linejoin:round;stroke-dasharray:1.99,3.98;}
	.st51{fill:url(#SVGID_44_);}
	.st52{fill:none;stroke:#FFFFFF;stroke-width:0.72;stroke-linecap:round;stroke-miterlimit:10;}
	.st53{fill:url(#SVGID_45_);}
	.st54{fill:url(#SVGID_46_);}
	.st55{fill:url(#SVGID_47_);}
	.st56{fill:url(#SVGID_48_);}
	.st57{fill:url(#SVGID_49_);}
	.st58{fill:url(#SVGID_50_);}
	.st59{fill:url(#SVGID_51_);}
	.st60{fill:url(#SVGID_52_);}
	.st61{fill:#FFD1A4;}
	.st62{fill:#F2BA88;}
	.st63{opacity:0.33;fill:url(#SVGID_53_);enable-background:new    ;}
	.st64{fill:#F6F9FF;}
	.st65{fill:url(#SVGID_54_);}
	.st66{fill:#FFFFF9;}
	.st67{fill:url(#SVGID_55_);}
	.st68{fill:#100942;}
	.st69{fill:#301DA0;}
	.st70{fill:url(#SVGID_56_);}
	.st71{fill:url(#SVGID_57_);}
	.st72{fill:url(#SVGID_58_);}
	.st73{fill:url(#SVGID_59_);}
	.st74{fill:url(#SVGID_60_);}
	.st75{fill:url(#SVGID_61_);}
	.st76{fill:url(#SVGID_62_);}
	.st77{fill:#F4CCB0;}
	.st78{opacity:0.33;fill:url(#SVGID_63_);enable-background:new    ;}
	.st79{opacity:0.33;fill:url(#SVGID_64_);enable-background:new    ;}
	.st80{fill:url(#SVGID_65_);}
	.st81{fill:#E3EDFD;}
	.st82{fill:url(#SVGID_66_);}
	.st83{fill:#AFE1FF;}
	.st84{opacity:0.95;fill:url(#SVGID_67_);enable-background:new    ;}
	.st85{fill:url(#SVGID_68_);}
	.st86{fill:url(#SVGID_69_);}
	.st87{fill:#300E70;}
	.st88{opacity:0.33;fill:url(#SVGID_70_);enable-background:new    ;}
	.st89{fill:url(#SVGID_71_);}
	.st90{fill:url(#SVGID_72_);}
	.st91{opacity:0.5;fill:url(#SVGID_73_);enable-background:new    ;}
	.st92{opacity:0.5;fill:url(#SVGID_74_);enable-background:new    ;}
	.st93{fill:url(#SVGID_75_);}
	.st94{opacity:0.3;fill:url(#SVGID_76_);enable-background:new    ;}
	.st95{opacity:0.3;fill:url(#SVGID_77_);enable-background:new    ;}
	.st96{opacity:0.3;fill:url(#SVGID_78_);enable-background:new    ;}
	.st97{opacity:0.3;fill:url(#SVGID_79_);enable-background:new    ;}
	.st98{fill:url(#SVGID_80_);}
	.st99{fill:url(#SVGID_81_);}
	.st100{fill:url(#SVGID_82_);}
	.st101{fill:url(#SVGID_83_);}
	.st102{fill:url(#SVGID_84_);}
	.st103{fill:url(#SVGID_85_);}
	.st104{opacity:0.5;fill:url(#SVGID_86_);enable-background:new    ;}
	.st105{fill:url(#SVGID_87_);}
</style>
<g>
	<g id="OBJECTS">
		<g>
			<defs>
				<rect id="SVGID_1_" x="-60.8" y="0" width="750" height="500"/>
			</defs>
			<clipPath id="SVGID_2_">
				<use xlink:href="#SVGID_1_"  style="overflow:visible;"/>
			</clipPath>
			<g class="st0">
				
					<radialGradient id="SVGID_3_" cx="273.9473" cy="70.1753" r="276.5598" gradientTransform="matrix(1 5.000000e-02 0 -0.61 0 348.9628)" gradientUnits="userSpaceOnUse">
					<stop  offset="0" style="stop-color:#00BFD8"/>
					<stop  offset="0.15" style="stop-color:#00BFD8;stop-opacity:0.98"/>
					<stop  offset="0.29" style="stop-color:#00BFD8;stop-opacity:0.93"/>
					<stop  offset="0.42" style="stop-color:#00BFD8;stop-opacity:0.85"/>
					<stop  offset="0.55" style="stop-color:#00BFD8;stop-opacity:0.73"/>
					<stop  offset="0.68" style="stop-color:#00BFD8;stop-opacity:0.57"/>
					<stop  offset="0.8" style="stop-color:#00BFD8;stop-opacity:0.38"/>
					<stop  offset="0.92" style="stop-color:#00BFD8;stop-opacity:0.16"/>
					<stop  offset="1" style="stop-color:#00BFD8;stop-opacity:0"/>
				</radialGradient>
				<path class="st1" d="M677.4,341l3.5-1.8c0.4-0.2,0.5-0.7,0.3-1c0,0,0,0,0,0c-0.2-0.4-0.7-0.5-1.1-0.4l-4.3,2.2l-27.1-17.1
					l3.6-1.9c0.4-0.2,0.5-0.7,0.3-1c0,0,0,0,0,0c-0.2-0.4-0.7-0.5-1.1-0.4l-4.4,2.3L620,304.8l3.7-1.9c0.4-0.2,0.5-0.7,0.3-1
					c0,0,0,0,0,0c-0.2-0.4-0.7-0.5-1.1-0.4l-4.5,2.4l-27.1-17.1l3.8-2c0.4-0.2,0.5-0.7,0.3-1.1c-0.2-0.4-0.7-0.5-1.1-0.4l-4.6,2.4
					l-27.1-17.1l3.9-2c0.4-0.2,0.5-0.7,0.3-1c0,0,0,0,0,0c-0.2-0.4-0.7-0.5-1.1-0.4l-4.7,2.5l-27.1-17.1l4-2.1
					c0.4-0.2,0.5-0.7,0.3-1.1c-0.2-0.4-0.7-0.5-1.1-0.4l-4.7,2.5l-27.1-17.1l4-2.1c0.4-0.2,0.5-0.7,0.3-1c0,0,0,0,0,0
					c-0.2-0.4-0.7-0.5-1.1-0.4l-4.8,2.5l-27.1-17.1l4.1-2.2c0.4-0.2,0.5-0.7,0.3-1c0,0,0,0,0,0c-0.2-0.4-0.7-0.5-1.1-0.4l-4.9,2.6
					l-27.1-17.1l4.2-2.2c0.4-0.2,0.5-0.7,0.3-1c0,0,0,0,0,0c-0.2-0.4-0.7-0.5-1.1-0.4l-5,2.6l-27.1-17.1l4.3-2.3
					c0.4-0.2,0.5-0.7,0.3-1.1c-0.2-0.4-0.7-0.5-1.1-0.3l-5.1,2.7l-27.1-17.1l4.4-2.3c0.4-0.2,0.5-0.7,0.3-1c0,0,0,0,0,0
					c-0.2-0.4-0.7-0.5-1.1-0.4l-5.2,2.7l-27.1-17.1l4.5-2.4c0.4-0.2,0.5-0.7,0.3-1c0,0,0,0,0,0c-0.2-0.4-0.7-0.5-1.1-0.3l-5.3,2.8
					L332.9,124l4.6-2.4c0.4-0.2,0.5-0.7,0.3-1c0,0,0,0,0,0c-0.2-0.4-0.7-0.5-1.1-0.3l-5.4,2.8l-27.1-17.1l4.7-2.4
					c0.4-0.2,0.5-0.7,0.3-1c0,0,0,0,0,0c-0.2-0.4-0.7-0.5-1.1-0.3l-5.5,2.9l-27.1-17.1l4.8-2.5c0.4-0.2,0.5-0.7,0.3-1c0,0,0,0,0,0
					c-0.2-0.4-0.7-0.5-1.1-0.3l-5.5,2.9l-5.5-3.5c-0.4-0.2-0.8-0.1-1.1,0.2c0,0,0,0,0,0c-0.2,0.4-0.1,0.9,0.3,1.1l4.8,3l-27.1,14.2
					l-5.5-3.4c-0.3-0.2-0.8-0.2-1.1,0.2c0,0,0,0,0,0c-0.2,0.4-0.1,0.9,0.3,1.1l4.7,3L216.6,117l-5.4-3.4c-0.3-0.2-0.8-0.2-1.1,0.2
					c0,0,0,0,0,0c-0.2,0.4-0.1,0.9,0.3,1.1l4.6,2.9l-27.1,14.2l-5.3-3.3c-0.4-0.2-0.8-0.1-1.1,0.2c0,0,0,0,0,0
					c-0.2,0.4-0.1,0.9,0.3,1.1l4.5,2.8l-27.1,14.2l-5.1-3.3c-0.4-0.2-0.9-0.1-1.1,0.2c-0.2,0.4-0.1,0.9,0.3,1.1l4.4,2.8l-27.1,14.2
					l-5.1-3.2c-0.4-0.2-0.9-0.1-1.1,0.2c-0.2,0.4-0.1,0.9,0.3,1.1l4.3,2.7l-27.2,14.2l-5-3.2c-0.3-0.2-0.8-0.2-1.1,0.2c0,0,0,0,0,0
					c-0.2,0.4-0.1,0.9,0.3,1.1l4.2,2.7L73,192.4l-4.9-3.1c-0.3-0.2-0.8-0.2-1.1,0.2c0,0,0,0,0,0c-0.2,0.4-0.1,0.9,0.3,1.1l4.1,2.6
					l-27.1,14.2l-4.8-3c-0.3-0.2-0.8-0.2-1.1,0.2c0,0,0,0,0,0c-0.2,0.4-0.1,0.9,0.3,1.1l4,2.6l-27.1,14.2l-4.7-3
					c-0.4-0.2-0.8-0.1-1.1,0.2c0,0,0,0,0,0c-0.2,0.4-0.1,0.9,0.3,1.1l3.9,2.5l-27.1,14.2l-4.6-2.9c-0.4-0.2-0.8-0.2-1.1,0.2
					c0,0,0,0,0,0c-0.2,0.4-0.1,0.9,0.3,1.1l3.9,2.4l-27.1,14.2l-4.6-2.9c-0.3-0.2-0.8-0.2-1.1,0.2c0,0,0,0,0,0
					c-0.2,0.4-0.1,0.9,0.3,1.1l3.8,2.4l-27.1,14.2l-4.5-2.8c-0.4-0.2-0.8-0.1-1.1,0.2c0,0,0,0,0,0c-0.2,0.4-0.1,0.9,0.3,1.1l3.7,2.3
					l-27.1,14.2l-4.4-2.8c-0.4-0.2-0.8-0.1-1.1,0.2c0,0,0,0,0,0c-0.2,0.4-0.1,0.9,0.3,1.1l3.6,2.3l-27.1,14.2l-4.3-2.7
					c-0.4-0.2-0.8-0.1-1.1,0.2c0,0,0,0,0,0c-0.2,0.4-0.1,0.9,0.3,1.1l3.5,2.2l-3.5,1.8c-0.4,0.2-0.5,0.7-0.3,1c0,0,0,0,0,0
					c0.1,0.3,0.4,0.4,0.7,0.4c0.1,0,0.3,0,0.4-0.1l4.3-2.3l27.1,17.1l-3.6,1.9c-0.4,0.2-0.5,0.7-0.3,1c0,0,0,0,0,0
					c0.1,0.3,0.4,0.4,0.7,0.4c0.1,0,0.3,0,0.4-0.1l4.4-2.3l27.1,17.1l-3.7,1.9c-0.4,0.2-0.5,0.7-0.3,1c0,0,0,0,0,0
					c0.1,0.2,0.4,0.4,0.7,0.4c0.1,0,0.3,0,0.4-0.1l4.5-2.3l27.2,17.1l-3.8,2c-0.4,0.2-0.5,0.7-0.3,1c0,0,0,0,0,0
					c0.1,0.2,0.4,0.4,0.7,0.4c0.1,0,0.3,0,0.4-0.1l4.6-2.4l27.1,17l-3.9,2c-0.4,0.2-0.5,0.7-0.3,1.1c0.1,0.3,0.4,0.4,0.7,0.4
					c0.1,0,0.3,0,0.4-0.1l4.6-2.4L14,389.1l-3.9,2.1c-0.4,0.2-0.5,0.7-0.3,1.1c0,0,0,0,0,0c0.1,0.3,0.4,0.4,0.7,0.4
					c0.1,0,0.3,0,0.4-0.1l4.7-2.5l27.2,17.1l-4,2.1c-0.4,0.2-0.5,0.7-0.3,1c0,0,0,0,0,0c0.1,0.3,0.4,0.4,0.7,0.4
					c0.1,0,0.3,0,0.4-0.1l4.8-2.5l27.1,17.1l-4.1,2.2c-0.4,0.2-0.5,0.7-0.3,1c0,0,0,0,0,0c0.1,0.3,0.4,0.4,0.7,0.4
					c0.1,0,0.3,0,0.4-0.1l4.8-2.6l27.1,17.1l-4.2,2.2c-0.4,0.2-0.5,0.7-0.3,1c0,0,0,0,0,0c0.1,0.3,0.4,0.4,0.7,0.4
					c0.1,0,0.3,0,0.4-0.1l5-2.6l27.1,17.1l-4.3,2.3c-0.4,0.2-0.5,0.7-0.3,1.1c0.1,0.3,0.4,0.4,0.7,0.4c0.1,0,0.3,0,0.4-0.1l5.1-2.7
					l27.1,17.1l-4.4,2.3c-0.4,0.2-0.5,0.7-0.3,1c0,0,0,0,0,0c0.1,0.3,0.4,0.4,0.7,0.4c0.1,0,0.3,0,0.4-0.1l5.2-2.7l27.1,17.1
					l-4.4,2.4c-0.4,0.2-0.5,0.7-0.3,1.1c0,0,0,0,0,0c0.1,0.3,0.4,0.4,0.7,0.4c0.1,0,0.3,0,0.4-0.1l5.3-2.8l27.2,17l-4.6,2.4
					c-0.4,0.2-0.5,0.7-0.3,1c0,0,0,0,0,0c0.1,0.3,0.4,0.4,0.7,0.4c0.1,0,0.3,0,0.4-0.1l5.4-2.8l27.1,17.1l-4.7,2.5
					c-0.4,0.2-0.5,0.7-0.3,1c0,0,0,0,0,0c0.1,0.2,0.4,0.4,0.7,0.4c0.1,0,0.3,0,0.4-0.1l5.5-2.9l27.1,17.1l-4.8,2.5
					c-0.4,0.2-0.5,0.7-0.3,1c0,0,0,0,0,0c0.1,0.3,0.4,0.4,0.7,0.4c0.1,0,0.3,0,0.4-0.1l5.5-2.9l5.5,3.5c0.1,0.1,0.3,0.1,0.4,0.1
					c0.3,0,0.5-0.1,0.7-0.4c0.2-0.4,0.1-0.9-0.3-1.1l-4.8-3l27.1-14.2l5.5,3.5c0.1,0.1,0.3,0.1,0.4,0.1c0.3,0,0.5-0.1,0.7-0.4
					c0.2-0.4,0.1-0.9-0.3-1.1l-4.7-2.9l27.1-14.2l5.4,3.4c0.1,0.1,0.3,0.1,0.4,0.1c0.3,0,0.5-0.1,0.7-0.4c0.2-0.4,0.1-0.9-0.3-1.1
					l-4.6-2.9l27.1-14.2l5.3,3.3c0.1,0.1,0.3,0.1,0.4,0.1c0.3,0,0.5-0.1,0.7-0.4c0.2-0.4,0.1-0.9-0.3-1.1l-4.5-2.8l27.1-14.2
					l5.2,3.3c0.1,0.1,0.3,0.1,0.4,0.1c0.3,0,0.5-0.1,0.7-0.4c0.2-0.4,0.1-0.9-0.3-1.1l-4.4-2.8l27.1-14.2l5.1,3.2
					c0.1,0.1,0.3,0.1,0.4,0.1c0.3,0,0.5-0.1,0.7-0.4c0.2-0.4,0.1-0.9-0.3-1.1l-4.3-2.7l27.1-14.2l5,3.1c0.1,0.1,0.3,0.1,0.4,0.1
					c0.3,0,0.5-0.1,0.7-0.4c0.2-0.4,0.1-0.9-0.3-1.1l-4.2-2.7l27.1-14.2l4.9,3.1c0.1,0.1,0.3,0.1,0.4,0.1c0.3,0,0.5-0.1,0.7-0.4
					c0.2-0.4,0.1-0.9-0.3-1.1l-4.1-2.6l27.1-14.2l4.8,3c0.1,0.1,0.3,0.1,0.4,0.1c0.3,0,0.5-0.1,0.7-0.4c0.2-0.4,0.1-0.9-0.3-1.1
					l-4-2.5l27.1-14.2l4.7,3c0.1,0.1,0.3,0.1,0.4,0.1c0.3,0,0.5-0.1,0.7-0.4c0.2-0.4,0.1-0.9-0.3-1.1l-4-2.5l27.1-14.3l4.7,2.9
					c0.1,0.1,0.3,0.1,0.4,0.1c0.3,0,0.5-0.1,0.7-0.4c0.2-0.4,0.1-0.9-0.3-1.1l-3.8-2.4l27.1-14.2l4.6,2.9c0.1,0.1,0.3,0.1,0.4,0.1
					c0.3,0,0.5-0.1,0.7-0.4c0.2-0.4,0.1-0.9-0.3-1.1l-3.8-2.4l27.1-14.2l4.5,2.8c0.1,0.1,0.3,0.1,0.4,0.1c0.3,0,0.5-0.1,0.7-0.4
					c0.2-0.4,0.1-0.9-0.3-1.1l-3.6-2.3l27.1-14.2l4.4,2.8c0.1,0.1,0.3,0.1,0.4,0.1c0.3,0,0.5-0.1,0.7-0.4c0.2-0.4,0.1-0.9-0.3-1.1
					l-3.6-2.3l27.1-14.2l4.3,2.7c0.1,0.1,0.3,0.1,0.4,0.1c0.3,0,0.5-0.1,0.7-0.4c0.2-0.4,0.1-0.9-0.3-1.1L677.4,341z M645.5,322.8
					L618.4,337l-27.1-17.1l27.1-14.2L645.5,322.8z M272.4,319.8L245.2,334l-27.1-17.1l27.1-14.2L272.4,319.8z M246.8,301.8
					l27.2-14.2l27.1,17.1L274,318.9L246.8,301.8z M274,320.8l27.1,17.1L274,352.1L246.8,335L274,320.8z M275.6,319.9l27.1-14.2
					l27.1,17.1L302.6,337L275.6,319.9z M304.3,304.9l27.1-14.2l27.1,17.1L331.4,322L304.3,304.9z M302.7,303.9l-27.1-17.1l27.1-14.2
					l27.1,17.1L302.7,303.9z M274,285.8l-27.2-17.1l27.2-14.2l27.1,17.1L274,285.8z M272.4,286.6l-27.1,14.2l-27.1-17.1l27.1-14.2
					L272.4,286.6z M243.7,301.7l-27.1,14.2l-27.1-17.1l27.1-14.2L243.7,301.7z M215,316.8L187.8,331l-27.1-17.1l27.1-14.2L215,316.8
					z M216.6,317.8l27.1,17.1l-27.1,14.2L189.4,332L216.6,317.8z M245.3,335.9l27.1,17.1l-27.1,14.2l-27.1-17.1L245.3,335.9z
					 M274,353.9l27.1,17.1L274,385.2l-27.1-17.1L274,353.9z M275.6,353.1l27.1-14.2l27.1,17.1l-27.1,14.2L275.6,353.1z M304.2,338
					l27.1-14.2l27.1,17.1l-27.1,14.3L304.2,338z M332.9,323l27.1-14.2l27.1,17.1L360.1,340L332.9,323z M361.6,307.9l27.1-14.2
					l27.1,17.1L388.8,325L361.6,307.9z M360.1,306.9l-27.1-17.1l27.1-14.2l27.1,17.1L360.1,306.9z M331.4,288.8l-27.1-17.1
					l27.1-14.2l27.1,17.1L331.4,288.8z M302.7,270.8l-27.1-17.1l27.1-14.2l27.1,17.1L302.7,270.8z M274,252.6l-27.1-17.1l27.1-14.2
					l27.1,17.1L274,252.6z M272.4,253.5l-27.2,14.2l-27.1-17.1l27.1-14.2L272.4,253.5z M243.7,268.5l-27.1,14.2l-27.2-17.1
					l27.1-14.2L243.7,268.5z M215,283.6l-27.1,14.2l-27.1-17.1l27.1-14.2L215,283.6z M186.3,298.7l-27.1,14.2L132,295.8l27.1-14.2
					L186.3,298.7z M157.6,313.8L130.4,328l-27.1-17.1l27.1-14.2L157.6,313.8z M159.2,314.8l27.1,17.1l-27.1,14.2L132,329
					L159.2,314.8z M187.9,332.8l27.1,17.1l-27.1,14.2l-27.1-17.1L187.9,332.8z M216.6,350.9l27.1,17.1l-27.1,14.2l-27.1-17.1
					L216.6,350.9z M245.2,369l27.1,17.1l-27.1,14.2l-27.1-17.1L245.2,369z M274,387.1l27.1,17.1L274,418.4l-27.1-17.1L274,387.1z
					 M275.6,386.2l27.1-14.2l27.1,17.1l-27.1,14.2L275.6,386.2z M304.3,371.2l27.1-14.2l27.1,17.1l-27.1,14.2L304.3,371.2z
					 M333,356.1l27.1-14.2l27.1,17.1l-27.1,14.2L333,356.1z M361.6,341l27.1-14.2l27.1,17.1l-27.1,14.2L361.6,341z M390.4,326
					l27.1-14.2l27.1,17.1L417.5,343L390.4,326z M419.1,310.9l27.1-14.2l27.1,17.1L446.2,328L419.1,310.9z M417.5,309.9l-27.1-17.1
					l27.1-14.2l27.1,17.1L417.5,309.9z M388.8,291.8l-27.1-17.1l27.1-14.2l27.1,17.1L388.8,291.8z M360.1,273.8l-27.1-17.1
					l27.1-14.2l27.1,17.1L360.1,273.8z M331.4,255.7l-27.1-17.1l27.1-14.2l27.1,17.1L331.4,255.7z M302.6,237.6l-27.1-17.1
					l27.1-14.2l27.1,17.1L302.6,237.6z M274,219.5l-27.1-17.1l27.1-14.2l27.1,17.1L274,219.5z M272.4,220.3l-27.1,14.2l-27.1-17.1
					l27.1-14.2L272.4,220.3z M243.7,235.4l-27.1,14.2l-27.1-17.1l27.1-14.2L243.7,235.4z M215,250.5l-27.2,14.2l-27.1-17.1
					l27.1-14.2L215,250.5z M186.3,265.5l-27.1,14.2L132,262.7l27.1-14.2L186.3,265.5z M157.6,280.6l-27.1,14.2l-27.1-17.1l27.1-14.2
					L157.6,280.6z M128.9,295.7l-27.1,14.2l-27.1-17.1l27.1-14.2L128.9,295.7z M100.2,310.8L73,325l-27.1-17.1L73,293.7L100.2,310.8
					z M101.7,311.8l27.1,17.1l-27.1,14.2L74.6,326L101.7,311.8z M130.4,329.8l27.1,17.1l-27.1,14.2l-27.1-17.1L130.4,329.8z
					 M159.1,347.9l27.1,17.1l-27.1,14.2L132,362.1L159.1,347.9z M187.8,366l27.2,17.1l-27.1,14.2l-27.1-17.1L187.8,366z
					 M216.5,384.1l27.1,17.1l-27.1,14.2l-27.1-17.1L216.5,384.1z M245.2,402.2l27.1,17.1l-27.1,14.2l-27.1-17.1L245.2,402.2z
					 M274,420.2l27.1,17.1L274,451.6l-27.1-17.1L274,420.2z M275.6,419.4l27.1-14.2l27.1,17.1l-27.1,14.2L275.6,419.4z M304.3,404.3
					l27.1-14.2l27.1,17.1l-27.1,14.2L304.3,404.3z M333,389.3l27.1-14.3l27.1,17.1l-27.1,14.2L333,389.3z M361.7,374.2l27.1-14.2
					l27.1,17l-27.1,14.2L361.7,374.2z M390.4,359.1l27.1-14.2l27.1,17.1l-27.1,14.2L390.4,359.1z M419,344l27.1-14.2l27.1,17.1
					l-27.1,14.2L419,344z M447.8,329l27.1-14.2l27.1,17L474.9,346L447.8,329z M476.5,313.9l27.1-14.2l27.1,17.1L503.6,331
					L476.5,313.9z M474.9,312.9l-27.1-17.1l27.1-14.2l27.1,17L474.9,312.9z M446.2,294.8l-27.1-17.1l27.1-14.2l27.1,17.1
					L446.2,294.8z M417.5,276.8l-27.1-17.1l27.1-14.2l27.1,17.1L417.5,276.8z M388.8,258.7l-27.1-17.1l27.1-14.2l27.1,17.1
					L388.8,258.7z M360.1,240.6l-27.1-17.1l27.1-14.2l27.1,17.1L360.1,240.6z M331.4,222.5l-27.1-17.1l27.1-14.2l27.1,17.1
					L331.4,222.5z M302.6,204.4l-27.1-17.1l27.1-14.2l27.1,17.1L302.6,204.4z M274,186.3l-27.1-17.1L274,155l27.1,17.1L274,186.3z
					 M272.4,187.2l-27.1,14.2l-27.1-17.1l27.1-14.2L272.4,187.2z M243.7,202.2l-27.1,14.2l-27.1-17.1l27.1-14.2L243.7,202.2z
					 M215,217.3l-27.1,14.2l-27.1-17.1l27.1-14.2L215,217.3z M186.3,232.4l-27.1,14.2L132,229.5l27.1-14.2L186.3,232.4z
					 M157.6,247.4l-27.1,14.2l-27.2-17.1l27.1-14.2L157.6,247.4z M128.9,262.5l-27.1,14.2l-27.2-17.1l27.1-14.2L128.9,262.5z
					 M100.2,277.6L73,291.8l-27.1-17.1L73,260.5L100.2,277.6z M71.5,292.7l-27.2,14.2l-27.1-17.1l27.1-14.2L71.5,292.7z M42.7,307.7
					L15.6,322l-27.1-17.1l27.1-14.2L42.7,307.7z M44.3,308.7l27.1,17.1l-27.1,14.2L17.2,323L44.3,308.7z M73,326.8l27.1,17.1
					L73,358.1l-27.1-17.1L73,326.8z M101.7,344.9l27.1,17.1l-27.1,14.2l-27.1-17.1L101.7,344.9z M130.4,363l27.1,17.1l-27.1,14.2
					l-27.1-17.1L130.4,363z M159.1,381.1l27.1,17.1l-27.1,14.2L132,395.3L159.1,381.1z M187.8,399.2l27.2,17.1l-27.1,14.2
					l-27.1-17.1L187.8,399.2z M216.5,417.2l27.1,17.1l-27.1,14.2l-27.1-17.1L216.5,417.2z M245.2,435.3l27.1,17.1l-27.1,14.2
					l-27.1-17.1L245.2,435.3z M274,453.4l27.1,17.1L274,484.7l-27.1-17.1L274,453.4z M275.6,452.6l27.1-14.2l27.1,17.1l-27.1,14.2
					L275.6,452.6z M304.3,437.5l27.1-14.2l27.1,17.1l-27.1,14.2L304.3,437.5z M333,422.4l27.1-14.2l27.1,17.1l-27.1,14.2L333,422.4z
					 M361.7,407.3l27.1-14.2l27.1,17.1l-27.1,14.2L361.7,407.3z M390.4,392.3l27.1-14.3l27.1,17.1l-27.1,14.2L390.4,392.3z
					 M419.1,377.2l27.1-14.2l27.1,17l-27.1,14.2L419.1,377.2z M447.8,362.1l27.1-14.2L502,365l-27.1,14.2L447.8,362.1z M476.5,347.1
					l27.1-14.2l27.1,17.1l-27.1,14.2L476.5,347.1z M505.1,332l27.1-14.2l27.1,17.1l-27.1,14.2L505.1,332z M533.9,316.9l27.1-14.3
					l27.1,17.1L561,334L533.9,316.9z M532.3,315.9l-27.1-17.1l27.1-14.2l27.1,17.1L532.3,315.9z M503.6,297.9l-27.1-17.1l27.1-14.2
					l27.1,17.1L503.6,297.9z M474.9,279.8l-27.1-17.1l27.1-14.2l27.1,17L474.9,279.8z M446.2,261.7L419,244.6l27.1-14.2l27.1,17.1
					L446.2,261.7z M417.5,243.6l-27.1-17.1l27.1-14.2l27.1,17.1L417.5,243.6z M388.8,225.5l-27.1-17.1l27.1-14.2l27.1,17.1
					L388.8,225.5z M360.1,207.4l-27.1-17.1l27.1-14.2l27.1,17.1L360.1,207.4z M331.4,189.4l-27.1-17.1l27.1-14.3l27.1,17.1
					L331.4,189.4z M302.6,171.3l-27.1-17.1l27.1-14.2l27.1,17L302.6,171.3z M274,153.2l-27.1-17.1l27.1-14.2l27.1,17.1L274,153.2z
					 M272.4,154l-27.1,14.2l-27.1-17.1l27.1-14.2L272.4,154z M243.7,169.1l-27.1,14.2l-27.1-17.1l27.1-14.2L243.7,169.1z M215,184.1
					l-27.1,14.2l-27.2-17.1l27.1-14.2L215,184.1z M186.3,199.2l-27.1,14.2L132,196.4l27.1-14.2L186.3,199.2z M157.6,214.3
					l-27.1,14.2l-27.1-17.1l27.1-14.2L157.6,214.3z M128.9,229.4l-27.2,14.2l-27.1-17.1l27.1-14.2L128.9,229.4z M100.2,244.4
					L73,258.7l-27.1-17.1L73,227.4L100.2,244.4z M71.5,259.5l-27.2,14.2l-27.1-17.1l27.1-14.2L71.5,259.5z M42.7,274.6l-27.1,14.2
					l-27.1-17.1l27.1-14.2L42.7,274.6z M14,289.7l-27.1,14.2l-27.1-17.1l27.1-14.2L14,289.7z M-14.7,304.7L-41.8,319l-27.1-17.1
					l27.1-14.2L-14.7,304.7z M-13.1,305.7L14,322.8L-13.1,337l-27.1-17L-13.1,305.7z M15.6,323.8l27.1,17.1l-27.1,14.3l-27.1-17.1
					L15.6,323.8z M44.3,341.9L71.4,359l-27.1,14.2l-27.1-17.1L44.3,341.9z M73,360l27.1,17.1L73,391.3l-27.1-17.1L73,360z
					 M101.7,378.1l27.1,17.1l-27.1,14.2l-27.1-17.1L101.7,378.1z M130.4,396.2l27.1,17.1l-27.1,14.2l-27.1-17.1L130.4,396.2z
					 M159.1,414.2l27.1,17.1l-27.1,14.2L132,428.5L159.1,414.2z M187.8,432.3l27.2,17.1l-27.1,14.2l-27.1-17.1L187.8,432.3z
					 M216.5,450.4l27.1,17.1l-27.1,14.2l-27.1-17.1L216.5,450.4z M245.2,468.5l27.1,17.1l-27.1,14.2l-27.1-17.1L245.2,468.5z
					 M274,486.5l27.1,17.1L274,517.9l-27.1-17.1L274,486.5z M275.6,485.7l27.1-14.2l27.1,17.1l-27.1,14.2L275.6,485.7z M304.3,470.6
					l27.1-14.2l27.1,17.1l-27.1,14.2L304.3,470.6z M333,455.6l27.1-14.2l27.1,17.1l-27.1,14.2L333,455.6z M361.7,440.5l27.1-14.2
					l27.1,17.1l-27.1,14.2L361.7,440.5z M390.4,425.4l27.1-14.2l27.1,17.1l-27.2,14.2L390.4,425.4z M419.1,410.3l27.1-14.2
					l27.1,17.1l-27.1,14.2L419.1,410.3z M447.8,395.3l27.1-14.3l27.1,17.1l-27.1,14.2L447.8,395.3z M476.5,380.2l27.1-14.2l27.1,17
					l-27.1,14.2L476.5,380.2z M505.2,365.1l27.1-14.2l27.1,17.1l-27.1,14.2L505.2,365.1z M533.9,350l27.1-14.2l27.1,17.1L561,367.1
					L533.9,350z M562.6,335l27.1-14.2l27.1,17.1l-27.1,14.2L562.6,335z M616.8,304.7l-27.1,14.2l-27.1-17.1l27.1-14.2L616.8,304.7z
					 M588.1,286.6L561,300.8l-27.1-17.1l27.1-14.2L588.1,286.6z M559.4,268.5l-27.1,14.2l-27.1-17.1l27.1-14.2L559.4,268.5z
					 M530.7,250.5l-27.1,14.2l-27.1-17.1l27.1-14.2L530.7,250.5z M502,232.3l-27.1,14.2l-27.1-17.1l27.1-14.2L502,232.3z
					 M473.3,214.3l-27.1,14.2L419,211.4l27.1-14.2L473.3,214.3z M444.6,196.2l-27.1,14.2l-27.1-17.1l27.1-14.2L444.6,196.2z
					 M415.9,178.1l-27.1,14.2l-27.1-17.1l27.1-14.3L415.9,178.1z M387.2,160l-27.1,14.2l-27.1-17.1l27.1-14.2L387.2,160z
					 M358.5,141.9l-27.1,14.2l-27.1-17.1l27.1-14.2L358.5,141.9z M329.8,123.8l-27.1,14.2L275.5,121l27.1-14.2L329.8,123.8z
					 M274,88.7l27.1,17.1L274,120l-27.1-17.1L274,88.7z M245.3,103.8l27.1,17.1l-27.1,14.2L218.1,118L245.3,103.8z M216.6,118.8
					l27.1,17.1l-27.1,14.2l-27.1-17.1L216.6,118.8z M187.9,133.9L215,151l-27.1,14.2l-27.1-17.1L187.9,133.9z M159.1,149l27.1,17.1
					l-27.1,14.2L132,163.2L159.1,149z M130.4,164.1l27.1,17.1l-27.1,14.2l-27.1-17.1L130.4,164.1z M101.7,179.1l27.1,17.1
					l-27.1,14.2l-27.1-17.1L101.7,179.1z M73,194.2l27.1,17.1L73,225.5l-27.1-17.1L73,194.2z M44.3,209.3l27.1,17.1l-27.1,14.2
					l-27.1-17.1L44.3,209.3z M15.6,224.4l27.1,17.1l-27.1,14.2l-27.1-17.1L15.6,224.4z M-13.1,239.4L14,256.5l-27.1,14.2l-27.1-17.1
					L-13.1,239.4z M-41.8,254.5l27.1,17.1l-27.1,14.2l-27.1-17.1L-41.8,254.5z M-70.5,269.6l27.1,17.1l-27.1,14.2l-27.1-17.1
					L-70.5,269.6z M-126.3,298.9l27.1-14.2l27.1,17.1L-99.2,316L-126.3,298.9z M-97.6,317l27.1-14.2l27.1,17.1L-70.5,334L-97.6,317z
					 M-68.9,335l27.1-14.2l27.1,17.1l-27.1,14.2L-68.9,335z M-40.2,353.1l27.1-14.2L14,356l-27.1,14.2L-40.2,353.1z M-11.5,371.2
					L15.6,357l27.1,17.1l-27.1,14.2L-11.5,371.2z M17.2,389.2L44.3,375l27.1,17.1l-27.1,14.3L17.2,389.2z M45.9,407.3L73,393.1
					l27.1,17.1L73,424.5L45.9,407.3z M74.6,425.4l27.1-14.2l27.1,17.1l-27.1,14.2L74.6,425.4z M103.3,443.5l27.1-14.2l27.1,17.1
					l-27.1,14.2L103.3,443.5z M132,461.6l27.1-14.2l27.1,17.1l-27.1,14.2L132,461.6z M160.7,479.7l27.1-14.2l27.2,17.1l-27.1,14.2
					L160.7,479.7z M189.4,497.8l27.1-14.2l27.1,17.1l-27.1,14.2L189.4,497.8z M218.1,515.9l27.1-14.2l27.1,17.1l-27.1,14.2
					L218.1,515.9z M274,551l-27.1-17.1l27.1-14.2l27.1,17.1L274,551z M302.6,536l-27.1-17.1l27.1-14.2l27.1,17.1L302.6,536z
					 M331.4,520.9l-27.1-17.1l27.1-14.2l27.1,17.1L331.4,520.9z M360.1,505.9l-27.1-17.1l27.1-14.2l27.1,17.1L360.1,505.9z
					 M388.8,490.8l-27.1-17.1l27.1-14.2l27.1,17.1L388.8,490.8z M417.5,475.7l-27.1-17.1l27.1-14.2l27.1,17.1L417.5,475.7z
					 M446.2,460.6L419,443.5l27.1-14.2l27.1,17.1L446.2,460.6z M474.9,445.6l-27.1-17.1l27.1-14.2l27.1,17L474.9,445.6z
					 M503.6,430.5l-27.1-17.1l27.1-14.2l27.1,17.1L503.6,430.5z M532.3,415.4l-27.1-17.1l27.1-14.3l27.1,17.1L532.3,415.4z
					 M561,400.3l-27.1-17.1L561,369l27.1,17.1L561,400.3z M589.7,385.2l-27.1-17.1l27.1-14.2l27.1,17.1L589.7,385.2z M618.4,370.1
					l-27.1-17.1l27.1-14.2l27.1,17.1L618.4,370.1z M647.1,355.1L620,338l27.1-14.2l27.1,17.1L647.1,355.1z"/>
			</g>
		</g>
		
			<linearGradient id="SVGID_4_" gradientUnits="userSpaceOnUse" x1="173.61" y1="269.4795" x2="476.16" y2="269.4795" gradientTransform="matrix(1 0 0 -1 0 499.8898)">
			<stop  offset="0" style="stop-color:#70FFFF"/>
			<stop  offset="0.7" style="stop-color:#22FFFB"/>
			<stop  offset="1" style="stop-color:#00FFF9"/>
		</linearGradient>
		<path class="st2" d="M464.2,202.9L184.9,26.6c-1.6-1-3.5-1.1-5.2-0.2l0,0h-0.1l0,0l-6.1,3.1l3.4,2.8V234c0,8.8,4.5,16.9,11.9,21.6
			L466.9,431l0.9,4.1l5.2-2.7c0.3-0.1,0.6-0.3,0.9-0.5h0.1l0,0c1.4-0.9,2.3-2.5,2.3-4.3V224.5C476.1,215.7,471.6,207.6,464.2,202.9z
			"/>
		
			<linearGradient id="SVGID_5_" gradientUnits="userSpaceOnUse" x1="189.4296" y1="457.1795" x2="460.7596" y2="65.8395" gradientTransform="matrix(1 0 0 -1 0 499.8898)">
			<stop  offset="0" style="stop-color:#00A7FF"/>
			<stop  offset="0.58" style="stop-color:#005AFC"/>
			<stop  offset="1" style="stop-color:#001EF9"/>
		</linearGradient>
		<path class="st3" d="M470.4,227.5v203.1c0,2.8-2.3,5.1-5.1,5.1c-1,0-1.9-0.3-2.8-0.8L183.2,258.5c-7.4-4.7-11.9-12.8-11.9-21.5
			V33.8c0-2.8,2.3-5.1,5.2-5.1c1,0,1.9,0.3,2.8,0.8l279.3,176.4C465.9,210.6,470.4,218.7,470.4,227.5z"/>
		
			<linearGradient id="SVGID_6_" gradientUnits="userSpaceOnUse" x1="171.23" y1="370.1864" x2="470.4" y2="370.1864" gradientTransform="matrix(1 0 0 -1 0 499.8898)">
			<stop  offset="0" style="stop-color:#004CFF"/>
			<stop  offset="0.78" style="stop-color:#0029B1"/>
			<stop  offset="1" style="stop-color:#001E9A"/>
		</linearGradient>
		<path class="st4" d="M470.4,227.5v3.2L171.2,41.8v-8c0-2.8,2.3-5.1,5.2-5.1c1,0,1.9,0.3,2.8,0.8l279.3,176.4
			C465.9,210.6,470.4,218.7,470.4,227.5z"/>
		
			<linearGradient id="SVGID_7_" gradientUnits="userSpaceOnUse" x1="471.7241" y1="270.5551" x2="426.1541" y2="305.8451" gradientTransform="matrix(1 0 0 -1 0 499.8898)">
			<stop  offset="0" style="stop-color:#06C9FD"/>
			<stop  offset="0.67" style="stop-color:#B0EEFE"/>
			<stop  offset="1" style="stop-color:#FFFFFF"/>
		</linearGradient>
		<path class="st5" d="M429,195.7c0,2.2-1.8,2.8-3.9,1.4s-3.9-4.3-3.9-6.4s1.8-2.8,3.9-1.4S429,193.5,429,195.7z"/>
		
			<linearGradient id="SVGID_8_" gradientUnits="userSpaceOnUse" x1="472.6863" y1="271.808" x2="427.1263" y2="307.088" gradientTransform="matrix(1 0 0 -1 0 499.8898)">
			<stop  offset="0" style="stop-color:#06C9FD"/>
			<stop  offset="0.67" style="stop-color:#B0EEFE"/>
			<stop  offset="1" style="stop-color:#FFFFFF"/>
		</linearGradient>
		<path class="st6" d="M443.6,205c0,2.2-1.8,2.8-3.9,1.4s-3.9-4.3-3.9-6.4s1.8-2.8,3.9-1.4S443.6,202.8,443.6,205z"/>
		
			<linearGradient id="SVGID_9_" gradientUnits="userSpaceOnUse" x1="473.6486" y1="273.038" x2="428.0786" y2="308.318" gradientTransform="matrix(1 0 0 -1 0 499.8898)">
			<stop  offset="0" style="stop-color:#06C9FD"/>
			<stop  offset="0.67" style="stop-color:#B0EEFE"/>
			<stop  offset="1" style="stop-color:#FFFFFF"/>
		</linearGradient>
		<path class="st7" d="M458.1,214.3c0,2.2-1.8,2.8-3.9,1.4s-3.9-4.3-3.9-6.4s1.8-2.8,3.9-1.4S458.1,212.1,458.1,214.3z"/>
		
			<linearGradient id="SVGID_10_" gradientUnits="userSpaceOnUse" x1="318.3388" y1="242.006" x2="264.1389" y2="319.836" gradientTransform="matrix(1 0 0 -1 0 499.8898)">
			<stop  offset="0" style="stop-color:#00A7E5"/>
			<stop  offset="1" style="stop-color:#06C9FD"/>
		</linearGradient>
		<path class="st8" d="M324.2,214.9v53.3c0,0.6-0.5,1.1-1.1,1.1c-0.2,0-0.4-0.1-0.6-0.2L263.8,232c-1.6-1-2.5-2.7-2.5-4.5v-53.3
			c0-0.6,0.5-1.1,1.1-1.1c0.2,0,0.4,0.1,0.6,0.2l58.8,37.1C323.3,211.3,324.3,213,324.2,214.9z"/>
		<path class="st9" d="M324.2,179.5v18.1c0,0.6-0.5,1.1-1.1,1.1c-0.2,0-0.4-0.1-0.6-0.2l-58.8-37.1c-1.6-1-2.5-2.7-2.5-4.5v-18.1
			c0-0.6,0.5-1.1,1.1-1.1c0.2,0,0.4,0.1,0.6,0.2l58.8,37.1C323.3,176,324.2,177.7,324.2,179.5z"/>
		<path class="st10" d="M304.1,226.4l-7.9-5v-7.9c-0.1-0.9-0.6-1.8-1.4-2.3l-4.1-2.6c-0.8-0.5-1.4-0.3-1.4,0.5v7.9l-7.9-5
			c-0.8-0.5-1.4-0.3-1.4,0.5v4.1c0.1,0.9,0.6,1.8,1.4,2.3l7.9,5v7.9c0.1,0.9,0.6,1.8,1.4,2.3l4.1,2.6c0.8,0.5,1.4,0.2,1.4-0.5v-7.9
			l7.9,5c0.8,0.5,1.4,0.2,1.4-0.5v-4.1C305.4,227.8,304.9,226.9,304.1,226.4z"/>
		<path class="st9" d="M251,125.5l-53.8-33.9c-0.8-0.7-2-0.8-2.9-0.4l0,0l-3.1,1.6l3.7,3v44.8c0,2.1,1.7,4.8,3.8,6.1l51.6,32.5
			l0.3,4.3l3.3-1.7l0,0c0.7-0.4,1.1-1.1,1-1.9v-48.3C254.8,129.6,253.1,126.8,251,125.5z"/>
		<path class="st9" d="M251.5,133.3v48.3c0,2.1-1.7,2.7-3.8,1.4l-53.8-33.9c-2.1-1.3-3.8-4.1-3.8-6.1V94.7c0-2.1,1.7-2.7,3.8-1.4
			l53.8,33.9C249.8,128.5,251.5,131.2,251.5,133.3z"/>
		
			<linearGradient id="SVGID_11_" gradientUnits="userSpaceOnUse" x1="182.397" y1="374.5214" x2="242.747" y2="318.0714" gradientTransform="matrix(1 5.000000e-02 0 -1 0 480.9198)">
			<stop  offset="0" style="stop-color:#06C9FD"/>
			<stop  offset="0.25" style="stop-color:#04AEF1"/>
			<stop  offset="1" style="stop-color:#0060D0"/>
		</linearGradient>
		<path class="st11" d="M226,169.3l-32.1-20.2c-2.1-1.3-3.8-4.1-3.8-6.1v-25.5l6.7-7.4c1.2-1.4,4.3,0.6,5.6,3.5l18.6,43.9L226,169.3
			z"/>
		
			<linearGradient id="SVGID_12_" gradientUnits="userSpaceOnUse" x1="184.8105" y1="377.0925" x2="245.1505" y2="320.6425" gradientTransform="matrix(1 5.000000e-02 0 -1 0 480.9198)">
			<stop  offset="0" style="stop-color:#06C9FD"/>
			<stop  offset="0.25" style="stop-color:#04AEF1"/>
			<stop  offset="1" style="stop-color:#0060D0"/>
		</linearGradient>
		<path class="st12" d="M251.5,178.2v3.4c0,2.1-1.7,2.7-3.8,1.4L216,163l5-5.5l12.1-13.3c1.2-1.4,4.3,0.6,5.6,3.5L251.5,178.2z"/>
		
			<linearGradient id="SVGID_13_" gradientUnits="userSpaceOnUse" x1="200.6422" y1="394.0215" x2="260.9922" y2="337.5715" gradientTransform="matrix(1 5.000000e-02 0 -1 0 480.9198)">
			<stop  offset="0" style="stop-color:#06C9FD"/>
			<stop  offset="0.25" style="stop-color:#04AEF1"/>
			<stop  offset="1" style="stop-color:#0060D0"/>
		</linearGradient>
		<path class="st13" d="M243.5,136.2c0,4.4-3.6,5.7-8,3s-8-8.6-8-13s3.6-5.7,8-3S243.5,131.8,243.5,136.2z"/>
		
			<linearGradient id="SVGID_14_" gradientUnits="userSpaceOnUse" x1="116.655" y1="303.8698" x2="116.655" y2="354.2798" gradientTransform="matrix(1 0 0 -1 0 499.8898)">
			<stop  offset="0" style="stop-color:#06C9FD"/>
			<stop  offset="0.67" style="stop-color:#B0EEFE"/>
			<stop  offset="1" style="stop-color:#FFFFFF"/>
		</linearGradient>
		<path class="st14" d="M133.3,175.9v19.7c0,1.6-1.3,2.9-2.9,2.9c-0.5,0-1.1-0.2-1.5-0.4l-25.2-15.9c-2.3-1.5-3.7-4-3.7-6.7v-13.7
			c0,0,1.3-5.9,4.8-4.5c3.8,1.6,3.4,13.7,5.6,15.1s4-17.9,9.5-15c6.6,3.5,1.5,26.6,5.9,28S129,176.2,133.3,175.9z"/>
		
			<linearGradient id="SVGID_15_" gradientUnits="userSpaceOnUse" x1="134.3215" y1="338.6589" x2="120.4215" y2="349.4189" gradientTransform="matrix(1 0 0 -1 0 499.8898)">
			<stop  offset="0" style="stop-color:#06C9FD"/>
			<stop  offset="0.67" style="stop-color:#B0EEFE"/>
			<stop  offset="1" style="stop-color:#FFFFFF"/>
		</linearGradient>
		<path class="st15" d="M121.3,151c0,0.7-0.5,0.9-1.2,0.4c-0.7-0.4-1.1-1.2-1.2-2c0-0.7,0.5-0.9,1.2-0.4
			C120.8,149.4,121.2,150.2,121.3,151z"/>
		
			<linearGradient id="SVGID_16_" gradientUnits="userSpaceOnUse" x1="134.6276" y1="339.0497" x2="120.7276" y2="349.8196" gradientTransform="matrix(1 0 0 -1 0 499.8898)">
			<stop  offset="0" style="stop-color:#06C9FD"/>
			<stop  offset="0.67" style="stop-color:#B0EEFE"/>
			<stop  offset="1" style="stop-color:#FFFFFF"/>
		</linearGradient>
		<path class="st16" d="M125.7,153.8c0,0.7-0.5,0.9-1.2,0.4c-0.7-0.5-1.1-1.2-1.2-2c0-0.7,0.5-0.9,1.2-0.4
			C125.2,152.3,125.7,153,125.7,153.8z"/>
		
			<linearGradient id="SVGID_17_" gradientUnits="userSpaceOnUse" x1="134.9314" y1="339.4345" x2="121.0314" y2="350.2046" gradientTransform="matrix(1 0 0 -1 0 499.8898)">
			<stop  offset="0" style="stop-color:#06C9FD"/>
			<stop  offset="0.67" style="stop-color:#B0EEFE"/>
			<stop  offset="1" style="stop-color:#FFFFFF"/>
		</linearGradient>
		<path class="st17" d="M130.2,156.6c0,0.7-0.5,0.9-1.2,0.4c-0.7-0.4-1.1-1.2-1.2-2c0-0.7,0.5-0.9,1.2-0.4
			C129.7,155.1,130.1,155.8,130.2,156.6z"/>
		<path class="st18" d="M159.7,319.4c1,0,1.8-0.7,2-1.6l39.1-158.3c0.4-1.1-0.3-2.3-1.4-2.6c-1.1-0.4-2.3,0.3-2.6,1.4
			c0,0.1-0.1,0.2-0.1,0.3l-39.1,158.3c-0.3,1.1,0.4,2.3,1.5,2.5C159.3,319.4,159.5,319.4,159.7,319.4z"/>
		<path class="st19" d="M226.4,207.6c0.9,0,1.6-0.7,1.6-1.6c0-0.6-0.3-1.1-0.8-1.4l-33.3-19.8c-0.8-0.4-1.7-0.2-2.2,0.6
			c-0.4,0.8-0.2,1.7,0.6,2.2l33.3,19.8C225.8,207.6,226.1,207.6,226.4,207.6z"/>
		<path class="st19" d="M221.1,229.2c0.6,0,1.1-0.3,1.4-0.8c0.4-0.7,0.2-1.7-0.5-2.2c0,0,0,0,0,0l-33.3-19.8
			c-0.8-0.4-1.7-0.2-2.2,0.6c-0.4,0.8-0.2,1.7,0.6,2.2l33.3,19.8C220.5,229.1,220.8,229.2,221.1,229.2z"/>
		<path class="st19" d="M215.7,250.8c0.9,0,1.6-0.7,1.6-1.6c0-0.6-0.3-1.1-0.8-1.4l-33.3-19.7c-0.8-0.4-1.7-0.2-2.2,0.6
			c-0.4,0.8-0.2,1.7,0.6,2.2l33.3,19.8C215.1,250.7,215.4,250.8,215.7,250.8z"/>
		<path class="st19" d="M210.4,272.3c0.6,0,1.1-0.3,1.4-0.8c0.4-0.7,0.2-1.7-0.5-2.2c0,0,0,0,0,0l-33.3-19.7
			c-0.8-0.4-1.7-0.2-2.2,0.6c-0.4,0.8-0.2,1.7,0.6,2.2l0,0l33.3,19.7C209.8,272.2,210.1,272.3,210.4,272.3z"/>
		<path class="st19" d="M205,293.9c0.9,0,1.6-0.7,1.6-1.6c0-0.6-0.3-1.1-0.8-1.4l-33.3-19.7c-0.8-0.4-1.7-0.2-2.2,0.6
			c-0.4,0.7-0.2,1.7,0.5,2.2c0,0,0,0,0,0l33.3,19.7C204.4,293.8,204.7,293.9,205,293.9z"/>
		<path class="st19" d="M199.7,315.5c0.9,0,1.6-0.7,1.6-1.6c0-0.6-0.3-1.1-0.8-1.4l-33.3-19.7c-0.8-0.4-1.7-0.2-2.2,0.5
			c-0.4,0.8-0.2,1.7,0.6,2.2l33.3,19.7C199.1,315.4,199.4,315.5,199.7,315.5z"/>
		<path class="st20" d="M189.1,251.6c-0.9-0.2-1.9,0.2-2.4,1c0,0-3.4-1.8-5.9-0.9c-1.5,0.7-2.6,2.2-2.8,3.8c-0.2,1.1-0.2,1.7-0.3,2
			c0,0.1,0,0.2,0.1,0.3c0.4,0.6,0.9,1.1,1.6,1.3c1.1,0.4,2.3,0.5,3.4,0.3c0.6-0.1,1.3-0.4,1.8-0.7c0.1-0.3,0.4-0.5,0.7-0.7
			c0.7-0.2,1.4-0.3,2.2-0.3c4.1-0.2,5.1-2,5.5-2.6C194.1,253.5,193.5,249.8,189.1,251.6z"/>
		<path class="st9" d="M187.3,250.7c1.4,0,2.9,0,4.3,0.1c3.6,0.8,1.6,6.5-4.2,6.5c-2.9,0-3.1,1.1-5.5,1.2c-1,0.1-2.1-0.2-3-0.7
			c-0.9-0.7-1.3-1.9-0.9-2.9c0.3-1.8,1-3.3,2.8-3.8C182.9,250.7,185.1,250.5,187.3,250.7z"/>
		<path class="st21" d="M182,245.1c0,0-1.2,4.1-1.6,5c-0.2,0.5-0.7,1.6-0.9,2s0.3,1.8,2.9,2s3.6-1.1,3.6-1.3c0.1-1.6,1.4-4.7,2-6"/>
		
			<linearGradient id="SVGID_18_" gradientUnits="userSpaceOnUse" x1="182.5977" y1="268.5932" x2="193.5377" y2="264.7732" gradientTransform="matrix(1 0 0 -1 0 499.8898)">
			<stop  offset="0" style="stop-color:#170960"/>
			<stop  offset="1" style="stop-color:#24188B"/>
		</linearGradient>
		<path class="st22" d="M196.9,227c-1.5,3.2-9.7,23.2-9.7,23.2c-0.2,0.3-0.8,1.7-3.8,1.9c-3.4,0.2-4-1.9-4-1.9
			c0-2.1,4.8-27.4,6.5-31c0.4-1,2-4.3,3.3-6.5l11.1,4.8C199.1,220.9,197.2,226.3,196.9,227z"/>
		
			<linearGradient id="SVGID_19_" gradientUnits="userSpaceOnUse" x1="194.9596" y1="285.997" x2="213.0796" y2="283.277" gradientTransform="matrix(1 0 0 -1 0 499.8898)">
			<stop  offset="0" style="stop-color:#170960"/>
			<stop  offset="1" style="stop-color:#24188B"/>
		</linearGradient>
		<path class="st23" d="M180.7,196.7c0,0-1.8,3.1-2.9,10.7c-0.3,3.4,0.5,6.9,2.4,9.8c2.2,3.4,7.9,6.2,7.9,6.2l9.8,6.1
			c0,0,3.7,0.1,7-5.5s-0.6-15.7-0.6-15.7L180.7,196.7z"/>
		<path class="st24" d="M189.5,212.6c-1.1,2.3-1.4,5-0.6,7.4c0.5,1.6,1.1,3.2,1.8,4.8l2.3,1.5l0.6-2.4L189.5,212.6z"/>
		<path class="st20" d="M196,281.9c-1.1,0-2.1-0.2-3.1-0.4c0,0-3.6-1.5-5.9-0.3s-2.4,3.1-2.4,4.6c0,0.5,0,1.4,0,1.5
			c0,0.1,0.1,0.2,0.1,0.3c0.4,0.5,1,0.9,1.7,1c1.1,0.3,2.3,0.3,3.4,0c0.6-0.2,1.2-0.5,1.8-0.9c0,0,0.5-0.7,0.7-0.8
			c0.6-0.2,1.3-0.3,2-0.4c4.8-0.3,5.9-2,6.3-2.8C201.3,282.3,200.2,279.8,196,281.9z"/>
		<path class="st9" d="M192.8,279.9l5.5,0.3c2,0.1,2.9,1.9,2.1,3.2c-0.5,0.9-1.5,2.4-6.4,2.7c-2.2,0.2-3.1,1.4-5.3,1.8
			c-1,0.2-2.1,0.1-3.1-0.4c-0.9-0.6-1.4-1.7-1.2-2.8c0.1-1.8,0.7-3.4,2.4-4C188.7,280,190.7,279.8,192.8,279.9z"/>
		<path class="st21" d="M187.6,277c-0.2,1.2-0.5,2.4-0.9,3.6c-0.2,0.4-0.6,0.6-0.7,1c-0.2,0.6,1.3,1.7,2.8,1.9
			c3,0.4,4.1-0.6,4.3-1.1c0.3-1.6,0.8-3.2,1.3-4.7"/>
		
			<linearGradient id="SVGID_20_" gradientUnits="userSpaceOnUse" x1="204.5824" y1="257.4382" x2="222.7124" y2="254.7182" gradientTransform="matrix(0.99 0.1 0.1 -0.99 -40.789 476.131)">
			<stop  offset="0" style="stop-color:#170960"/>
			<stop  offset="1" style="stop-color:#24188B"/>
		</linearGradient>
		<path class="st25" d="M210.4,218.5c-0.1-1.6-1.1-9.5-1.1-9.5l-17-5.1c0,0-3.7,5.5-3.4,11.8c0.1,3.5,3.6,10.9,3.6,10.9
			c1,5.4,2.5,19.5,2.5,19.6c-1,2.2-3.9,11.9-4.3,13.5c-1.1,4.2-3.9,19.2-3.9,19.2s-0.4,2,3,2.5c4,0.6,5.3-1.8,5.3-1.8
			s11.2-29.2,11.8-31.8c1.2-4.1,2.2-8.2,2.9-12.4C210.5,229.8,210.8,224.1,210.4,218.5z"/>
		<path class="st21" d="M207.7,154.3c-1,0.4-2.1,0.6-3.1,0.8h-0.1c-0.1,0-0.1,0-0.2,0c-0.2,0-0.4,0.1-0.6,0.1
			c-0.2,0-0.4,0.2-0.5,0.3c-0.4,1.5-0.6,3.1-0.7,4.6l-1.2-0.6l-7.3-3.7c0,0,0.4-2,0.6-4s1.5-12,4.2-13.4s10.9,0.6,11.5,1.6
			c0,0-0.1,1.8-0.2,4.7S209.3,153.6,207.7,154.3z"/>
		<path class="st26" d="M198.2,133c-2.4,1-2.4,2.2-3,2.7c-3.3,1.2-3.3,4.9-3,7.3c0.3,2.1,0.9,4.1,1.7,6.1c0.3,1-0.1,2,0.1,2.6
			c0.3,0.8,1.5,1.6,2.2,2c0.9,0.5,2.5,0.6,2.9,0.1c0.7-1,1.1-3.8,1.3-5.2c0.1-1.1,0.6-1.6,1.3-1.5s0.7,1.1,0.8,2
			c0,0.5,0.4,0.8,0.8,0.8c0.1,0,0.3,0,0.4-0.1c0.3-0.9,0.6-1.7,0.7-2.6c0.2-0.7,2.4-1.8,2.7-3.8c0.2-1.6,1.1-1.4,2.8-2
			c3.1-1,3-3.7,1.7-5.7c-1-1.3-2.4-2.2-3.9-2.5C204.5,132.4,200.8,131.9,198.2,133z"/>
		<path class="st10" d="M209.2,192.2L209.2,192.2L209.2,192.2c-0.6,3.4-0.8,7-0.5,10.4c0.2,2.6,0.7,5.1,1.3,7.6c0.2,1-2.5,4-5.4,4.8
			c-9.7,2.9-22.8-8.1-25.4-12c-2.2-3.4,1-8.5,2.2-11.2c2.2-4.7,2.6-8.4,0.2-14.6c-3-7.6-3.4-17.6,1.4-21.1c2.3-1.9,5.7-2.2,8.2-0.6
			l1.8,0.9l0.8-1.2c3.8,1.6,7.3,3.7,10.5,6.3l-0.1,1.1l0.3,0.2c3.6,2.4,6.6,4.8,8.4,7.6l-2.3,13l-0.9,5L209.2,192.2z"/>
		
			<linearGradient id="SVGID_21_" gradientUnits="userSpaceOnUse" x1="204.4" y1="314.5148" x2="210.77" y2="314.5148" gradientTransform="matrix(1 0 0 -1 0 499.8898)">
			<stop  offset="0" style="stop-color:#00A7E5"/>
			<stop  offset="0.36" style="stop-color:#02B3ED;stop-opacity:0.66"/>
			<stop  offset="1" style="stop-color:#06C9FD;stop-opacity:0"/>
		</linearGradient>
		<path class="st27" d="M210.8,183.6l-0.9,5c-2-2-3.9-4.2-5.5-6.5L210.8,183.6z"/>
		
			<linearGradient id="SVGID_22_" gradientUnits="userSpaceOnUse" x1="196.02" y1="339.5548" x2="204.49" y2="339.5548" gradientTransform="matrix(1 0 0 -1 0 499.8898)">
			<stop  offset="0" style="stop-color:#00A7E5"/>
			<stop  offset="0.36" style="stop-color:#02B3ED;stop-opacity:0.66"/>
			<stop  offset="1" style="stop-color:#06C9FD;stop-opacity:0"/>
		</linearGradient>
		<path class="st28" d="M204.5,162l-0.1,0.7c0,0-5.4-3.3-8.4-4.8C199,159,201.8,160.3,204.5,162z"/>
		<path class="st29" d="M209.2,192.3L209.2,192.3z"/>
		<path class="st18" d="M193.8,339.9c1,0,1.8-0.7,2.1-1.6L234.9,180c0.3-1.1-0.4-2.3-1.6-2.6s-2.3,0.4-2.6,1.6l0,0l-39.1,158.3
			c-0.3,1.1,0.4,2.3,1.5,2.5C193.4,339.9,193.6,339.9,193.8,339.9z"/>
		<path class="st21" d="M255.8,171.3c-0.1,0.1-0.2,0.2-0.3,0.3c-0.4-0.1-0.9,0.1-1.1,0.5c-0.7,1-1.6,1.8-2.7,2.4
			c-0.6,0.2-1.1,0.3-1.1,0.3l0.4-0.8c0.2-0.5,0.5-0.9,0.8-1.3c0.5-0.7,0.3-1.4-0.1-1.3c-1,0.4-1.8,1.1-2.5,1.9
			c-0.6,0.6-1.3,1.3-1.8,1.9c-0.2,0.3-0.9,2.1-2,2.6c-1.6,0.7-3.2,1.3-4.9,1.7c-6.6,1.9-12.4,3.4-12.4,3.4l-5.6-3.9l-8.7,7.4
			c0,0,8.8,7.5,12.8,6.6c2.9-0.6,17.9-9.2,17.9-9.2s3.9-2.1,4.4-2.2c0.8-0.2,1.9-0.4,2.7-0.7c1.1-0.5,2-1.2,2.6-2.1
			c0.3-0.5,1.5-3.1,2-4.2c0.5-1.1,0.3-1.2,0-1.3c0.2-0.4,0.3-0.6,0.4-0.9C257,171.2,256.3,171,255.8,171.3z"/>
		<path class="st10" d="M210.7,167.6c3.2,2.6,12,11.3,12,11.3c0.8,1.7,0.9,3.7,0.2,5.4c-1.4,3.8-5.1,5.7-7.1,5.3
			c-2.5-0.6-6.6-3.7-8.8-5.1c-3.3-2.2-8.7-8.4-4.5-15.4C204.9,165.2,209.1,166.3,210.7,167.6z"/>
		
			<linearGradient id="SVGID_23_" gradientUnits="userSpaceOnUse" x1="484.2702" y1="234.7299" x2="503.5667" y2="210.6143" gradientTransform="matrix(1 0 0 -1 0 499.8898)">
			<stop  offset="0" style="stop-color:#00FFF9"/>
			<stop  offset="0.41" style="stop-color:#39FFFC"/>
			<stop  offset="1" style="stop-color:#86FFFF"/>
		</linearGradient>
		<path class="st30" d="M486.5,265.4l13.8,8.6c0.6,0.4,1,1,1.1,1.7v13.4l-13.8-8.6c-0.6-0.4-1-1-1.1-1.7V265.4 M486.1,263.9
			c-0.5,0-0.8,0.3-0.8,0.9v13.9c0.1,1.1,0.7,2.1,1.7,2.7l13.9,8.7c0.3,0.2,0.6,0.3,0.9,0.3c0.5,0,0.8-0.3,0.8-0.9v-13.9
			c-0.1-1.1-0.7-2.1-1.7-2.7l-13.9-8.7C486.7,264.1,486.4,264,486.1,263.9L486.1,263.9z"/>
		
			<linearGradient id="SVGID_24_" gradientUnits="userSpaceOnUse" x1="506.55" y1="735.9711" x2="529.3" y2="735.9711" gradientTransform="matrix(1 1.25 0 -1 0 373.3698)">
			<stop  offset="0" style="stop-color:#00FFF9"/>
			<stop  offset="0.41" style="stop-color:#39FFFC"/>
			<stop  offset="1" style="stop-color:#86FFFF"/>
		</linearGradient>
		<path class="st31" d="M528.1,292.4l-20.3-12.7c-0.7-0.4-1.1-1.2-1.2-2l0,0c0-0.7,0.5-0.9,1.2-0.5l20.3,12.7c0.7,0.4,1.1,1.2,1.2,2
			l0,0C529.3,292.6,528.8,292.8,528.1,292.4z"/>
		
			<linearGradient id="SVGID_25_" gradientUnits="userSpaceOnUse" x1="506.55" y1="731.0327" x2="529.3" y2="731.0327" gradientTransform="matrix(1 1.25 0 -1 0 373.3698)">
			<stop  offset="0" style="stop-color:#00FFF9"/>
			<stop  offset="0.41" style="stop-color:#39FFFC"/>
			<stop  offset="1" style="stop-color:#86FFFF"/>
		</linearGradient>
		<path class="st32" d="M528.1,297.3l-20.3-12.7c-0.7-0.4-1.1-1.2-1.2-2l0,0c0-0.7,0.5-0.9,1.2-0.5l20.3,12.7c0.7,0.4,1.1,1.2,1.2,2
			l0,0C529.3,297.5,528.8,297.7,528.1,297.3z"/>
		
			<linearGradient id="SVGID_26_" gradientUnits="userSpaceOnUse" x1="506.55" y1="726.1011" x2="529.3" y2="726.1011" gradientTransform="matrix(1 1.25 0 -1 0 373.3698)">
			<stop  offset="0" style="stop-color:#00FFF9"/>
			<stop  offset="0.41" style="stop-color:#39FFFC"/>
			<stop  offset="1" style="stop-color:#86FFFF"/>
		</linearGradient>
		<path class="st33" d="M528.1,302.2l-20.3-12.7c-0.7-0.4-1.1-1.2-1.2-2l0,0c0-0.7,0.5-0.9,1.2-0.5l20.3,12.7c0.7,0.4,1.1,1.2,1.2,2
			l0,0C529.3,302.5,528.8,302.7,528.1,302.2z"/>
		
			<linearGradient id="SVGID_27_" gradientUnits="userSpaceOnUse" x1="506.55" y1="717.5385" x2="517.7" y2="717.5385" gradientTransform="matrix(1 1.25 0 -1 0 373.3698)">
			<stop  offset="0" style="stop-color:#00FFF9"/>
			<stop  offset="0.41" style="stop-color:#39FFFC"/>
			<stop  offset="1" style="stop-color:#86FFFF"/>
		</linearGradient>
		<path class="st34" d="M516.5,299.9l-8.7-5.4c-0.7-0.4-1.1-1.2-1.2-2l0,0c0-0.7,0.5-0.9,1.2-0.5l8.7,5.4c0.7,0.4,1.1,1.2,1.2,2l0,0
			C517.7,300.2,517.2,300.4,516.5,299.9z"/>
		
			<linearGradient id="SVGID_28_" gradientUnits="userSpaceOnUse" x1="496.5743" y1="269.2095" x2="488.6743" y2="282.9695" gradientTransform="matrix(1 0.62 0 -1 0 275.6298)">
			<stop  offset="0" style="stop-color:#00FFF9"/>
			<stop  offset="0.41" style="stop-color:#39FFFC"/>
			<stop  offset="1" style="stop-color:#86FFFF"/>
		</linearGradient>
		<path class="st35" d="M495.1,308.5l3.8-1.4c0.4-0.1,0.4-0.7,0-1.3s-1-1-1.3-0.8l-3.8,1.4l-3.9-6.2c-0.4-0.6-1-1-1.3-0.8
			s-0.4,0.7,0,1.3l3.8,6.2l-3.8,1.4c-0.4,0.1-0.4,0.7,0,1.3s1,1,1.3,0.8l3.9-1.4l3.8,6.2c0.4,0.6,1,1,1.3,0.8s0.4-0.7,0-1.3
			L495.1,308.5z"/>
		
			<linearGradient id="SVGID_29_" gradientUnits="userSpaceOnUse" x1="484.2702" y1="203.9199" x2="503.5667" y2="179.8043" gradientTransform="matrix(1 0 0 -1 0 499.8898)">
			<stop  offset="0" style="stop-color:#00FFF9"/>
			<stop  offset="0.41" style="stop-color:#39FFFC"/>
			<stop  offset="1" style="stop-color:#86FFFF"/>
		</linearGradient>
		<path class="st36" d="M486.5,296.2l13.8,8.6c0.6,0.4,1,1,1.1,1.7v13.4l-13.8-8.6c-0.6-0.4-1-1-1.1-1.7V296.2 M486.1,294.8
			c-0.5,0-0.8,0.3-0.8,0.9v13.9c0.1,1.1,0.7,2.1,1.7,2.7l13.9,8.7c0.3,0.2,0.6,0.3,0.9,0.3c0.5,0,0.8-0.3,0.8-0.9v-13.9
			c-0.1-1.1-0.7-2.1-1.7-2.7L487,295C486.7,294.9,486.4,294.8,486.1,294.8L486.1,294.8z"/>
		
			<linearGradient id="SVGID_30_" gradientUnits="userSpaceOnUse" x1="506.55" y1="705.1611" x2="529.3" y2="705.1611" gradientTransform="matrix(1 1.25 0 -1 0 373.3698)">
			<stop  offset="0" style="stop-color:#00FFF9"/>
			<stop  offset="0.41" style="stop-color:#39FFFC"/>
			<stop  offset="1" style="stop-color:#86FFFF"/>
		</linearGradient>
		<path class="st37" d="M528.1,323.2l-20.3-12.7c-0.7-0.4-1.1-1.2-1.2-2l0,0c0-0.7,0.5-0.9,1.2-0.5l20.3,12.7c0.7,0.4,1.1,1.2,1.2,2
			l0,0C529.3,323.4,528.8,323.6,528.1,323.2z"/>
		
			<linearGradient id="SVGID_31_" gradientUnits="userSpaceOnUse" x1="506.55" y1="700.2227" x2="529.3" y2="700.2227" gradientTransform="matrix(1 1.25 0 -1 0 373.3698)">
			<stop  offset="0" style="stop-color:#00FFF9"/>
			<stop  offset="0.41" style="stop-color:#39FFFC"/>
			<stop  offset="1" style="stop-color:#86FFFF"/>
		</linearGradient>
		<path class="st38" d="M528.1,328.1l-20.3-12.7c-0.7-0.4-1.1-1.2-1.2-2l0,0c0-0.7,0.5-0.9,1.2-0.5l20.3,12.7c0.7,0.4,1.1,1.2,1.2,2
			l0,0C529.3,328.3,528.8,328.5,528.1,328.1z"/>
		
			<linearGradient id="SVGID_32_" gradientUnits="userSpaceOnUse" x1="506.55" y1="695.2911" x2="529.3" y2="695.2911" gradientTransform="matrix(1 1.25 0 -1 0 373.3698)">
			<stop  offset="0" style="stop-color:#00FFF9"/>
			<stop  offset="0.41" style="stop-color:#39FFFC"/>
			<stop  offset="1" style="stop-color:#86FFFF"/>
		</linearGradient>
		<path class="st39" d="M528.1,333.1l-20.3-12.7c-0.7-0.4-1.1-1.2-1.2-2l0,0c0-0.7,0.5-0.9,1.2-0.5l20.3,12.7c0.7,0.4,1.1,1.2,1.2,2
			l0,0C529.3,333.3,528.8,333.5,528.1,333.1z"/>
		
			<linearGradient id="SVGID_33_" gradientUnits="userSpaceOnUse" x1="506.55" y1="686.7285" x2="517.7" y2="686.7285" gradientTransform="matrix(1 1.25 0 -1 0 373.3698)">
			<stop  offset="0" style="stop-color:#00FFF9"/>
			<stop  offset="0.41" style="stop-color:#39FFFC"/>
			<stop  offset="1" style="stop-color:#86FFFF"/>
		</linearGradient>
		<path class="st40" d="M516.5,330.8l-8.7-5.4c-0.7-0.4-1.1-1.2-1.2-2l0,0c0-0.7,0.5-0.9,1.2-0.5l8.7,5.4c0.7,0.4,1.1,1.2,1.2,2l0,0
			C517.7,331,517.2,331.2,516.5,330.8z"/>
		
			<linearGradient id="SVGID_34_" gradientUnits="userSpaceOnUse" x1="484.2775" y1="173.0858" x2="503.574" y2="148.9702" gradientTransform="matrix(1 0 0 -1 0 499.8898)">
			<stop  offset="0" style="stop-color:#00FFF9"/>
			<stop  offset="0.41" style="stop-color:#39FFFC"/>
			<stop  offset="1" style="stop-color:#86FFFF"/>
		</linearGradient>
		<path class="st41" d="M486.5,327l13.8,8.6c0.6,0.4,1,1,1.1,1.7v13.4l-13.8-8.6c-0.6-0.4-1-1-1.1-1.7V327 M486.1,325.6
			c-0.5,0-0.8,0.3-0.8,0.9v13.9c0.1,1.1,0.7,2.1,1.7,2.7l13.9,8.7c0.3,0.2,0.6,0.3,0.9,0.3c0.5,0,0.8-0.3,0.8-0.9v-14
			c-0.1-1.1-0.7-2.1-1.7-2.7l-13.9-8.7C486.7,325.7,486.4,325.6,486.1,325.6L486.1,325.6z"/>
		
			<linearGradient id="SVGID_35_" gradientUnits="userSpaceOnUse" x1="506.55" y1="674.3511" x2="529.3" y2="674.3511" gradientTransform="matrix(1 1.25 0 -1 0 373.3698)">
			<stop  offset="0" style="stop-color:#00FFF9"/>
			<stop  offset="0.41" style="stop-color:#39FFFC"/>
			<stop  offset="1" style="stop-color:#86FFFF"/>
		</linearGradient>
		<path class="st42" d="M528.1,354l-20.3-12.7c-0.7-0.4-1.1-1.2-1.2-2l0,0c0-0.7,0.5-0.9,1.2-0.5l20.3,12.7c0.7,0.4,1.1,1.2,1.2,2
			l0,0C529.3,354.2,528.8,354.4,528.1,354z"/>
		
			<linearGradient id="SVGID_36_" gradientUnits="userSpaceOnUse" x1="506.55" y1="669.4127" x2="529.3" y2="669.4127" gradientTransform="matrix(1 1.25 0 -1 0 373.3698)">
			<stop  offset="0" style="stop-color:#00FFF9"/>
			<stop  offset="0.41" style="stop-color:#39FFFC"/>
			<stop  offset="1" style="stop-color:#86FFFF"/>
		</linearGradient>
		<path class="st43" d="M528.1,358.9l-20.3-12.7c-0.7-0.4-1.1-1.2-1.2-2l0,0c0-0.7,0.5-0.9,1.2-0.5l20.3,12.7c0.7,0.4,1.1,1.2,1.2,2
			l0,0C529.3,359.1,528.8,359.4,528.1,358.9z"/>
		
			<linearGradient id="SVGID_37_" gradientUnits="userSpaceOnUse" x1="506.55" y1="664.4795" x2="529.3" y2="664.4795" gradientTransform="matrix(1 1.25 0 -1 0 373.3698)">
			<stop  offset="0" style="stop-color:#00FFF9"/>
			<stop  offset="0.41" style="stop-color:#39FFFC"/>
			<stop  offset="1" style="stop-color:#86FFFF"/>
		</linearGradient>
		<path class="st44" d="M528.1,363.9l-20.3-12.7c-0.7-0.4-1.1-1.2-1.2-2l0,0c0-0.7,0.5-0.9,1.2-0.5l20.3,12.7c0.7,0.4,1.1,1.2,1.2,2
			l0,0C529.3,364.1,528.8,364.3,528.1,363.9z"/>
		
			<linearGradient id="SVGID_38_" gradientUnits="userSpaceOnUse" x1="506.55" y1="655.9185" x2="517.7" y2="655.9185" gradientTransform="matrix(1 1.25 0 -1 0 373.3698)">
			<stop  offset="0" style="stop-color:#00FFF9"/>
			<stop  offset="0.41" style="stop-color:#39FFFC"/>
			<stop  offset="1" style="stop-color:#86FFFF"/>
		</linearGradient>
		<path class="st45" d="M516.5,361.6l-8.7-5.4c-0.7-0.4-1.1-1.2-1.2-2l0,0c0-0.7,0.5-0.9,1.2-0.5l8.7,5.4c0.7,0.4,1.1,1.2,1.2,2l0,0
			C517.7,361.8,517.2,362,516.5,361.6z"/>
		
			<linearGradient id="SVGID_39_" gradientUnits="userSpaceOnUse" x1="335.15" y1="242.559" x2="446.59" y2="242.559" gradientTransform="matrix(1 0 0 -1 0 499.8898)">
			<stop  offset="0" style="stop-color:#FFFFFF"/>
			<stop  offset="1" style="stop-color:#FFFFFF"/>
		</linearGradient>
		<path class="st46" d="M446.1,246.3v93.6c0,1-0.9,1.9-1.9,1.9c-0.4,0-0.7-0.1-1-0.3L340,276.4c-2.7-1.7-4.4-4.8-4.4-8v-93.6
			c0-1,0.8-1.9,1.9-1.9c0.4,0,0.7,0.1,1,0.3l103.1,65.1C444.4,240,446.1,243,446.1,246.3z"/>
		
			<linearGradient id="SVGID_40_" gradientUnits="userSpaceOnUse" x1="349.62" y1="208.0629" x2="432.12" y2="208.0629" gradientTransform="matrix(1 0.63 0 -1 0 246.4498)">
			<stop  offset="0" style="stop-color:#FFFFFF"/>
			<stop  offset="1" style="stop-color:#FFFFFF"/>
		</linearGradient>
		<path class="st47" d="M430.6,311.3L351.1,261c-0.8-0.5-1.4-1.4-1.5-2.5c0-0.8,0.7-1.1,1.5-0.5l79.5,50.2c0.8,0.5,1.4,1.4,1.5,2.5
			C432.1,311.5,431.5,311.8,430.6,311.3z"/>
		
			<linearGradient id="SVGID_41_" gradientUnits="userSpaceOnUse" x1="349.62" y1="200.313" x2="432.12" y2="200.313" gradientTransform="matrix(1 0.63 0 -1 0 246.4498)">
			<stop  offset="0" style="stop-color:#FFFFFF"/>
			<stop  offset="1" style="stop-color:#FFFFFF"/>
		</linearGradient>
		<path class="st48" d="M430.6,319l-79.5-50.2c-0.8-0.5-1.4-1.4-1.5-2.5c0-0.8,0.7-1.1,1.5-0.5l79.5,50.2c0.8,0.5,1.4,1.4,1.5,2.5
			C432.1,319.3,431.5,319.5,430.6,319z"/>
		
			<linearGradient id="SVGID_42_" gradientUnits="userSpaceOnUse" x1="349.62" y1="192.6011" x2="396.13" y2="192.6011" gradientTransform="matrix(1 0.63 0 -1 0 246.4498)">
			<stop  offset="0" style="stop-color:#FFFFFF"/>
			<stop  offset="1" style="stop-color:#FFFFFF"/>
		</linearGradient>
		<path class="st49" d="M394.6,304l-43.5-27.6c-0.8-0.5-1.4-1.4-1.5-2.4c0-0.8,0.7-1.1,1.5-0.6l43.5,27.6c0.8,0.5,1.4,1.4,1.5,2.5
			C396.1,304.3,395.5,304.6,394.6,304z"/>
		
			<linearGradient id="SVGID_43_" gradientUnits="userSpaceOnUse" x1="258.59" y1="188.4525" x2="394.79" y2="188.4525" gradientTransform="matrix(1 0 0 -1 0 499.8898)">
			<stop  offset="0" style="stop-color:#FFFFFF"/>
			<stop  offset="1" style="stop-color:#FFFFFF"/>
		</linearGradient>
		<path class="st50" d="M394.3,340.4v29.1c0,1-0.9,1.9-1.9,1.9c-0.4,0-0.7-0.1-1-0.3l-127.9-80.6c-2.7-1.7-4.4-4.8-4.4-8v-29.1
			c0-1,0.9-1.9,1.9-1.9c0.4,0,0.7,0.1,1,0.3l127.9,80.6C392.6,334.1,394.3,337.1,394.3,340.4z"/>
		<path class="st9" d="M387.3,353.9c0-0.2-0.1-0.4-0.1-0.6s-0.1-0.5-0.2-0.8s-0.2-0.6-0.2-0.9s-0.1-0.4-0.2-0.5
			c-0.1-0.4-0.3-0.7-0.4-1.1c0-0.1-0.1-0.2-0.1-0.3c-0.2-0.4-0.4-0.8-0.6-1.2l-0.1-0.1c-0.2-0.4-0.5-0.9-0.8-1.3l0,0
			c-0.6-0.8-1.2-1.6-1.9-2.4l1.3-0.7l0,0c0.2-0.1,0.4-0.3,0.6-0.4l0.1-0.1c0.1-0.1,0.3-0.3,0.4-0.5c0-0.1,0.1-0.1,0.1-0.2
			c0.1-0.2,0.1-0.4,0.2-0.6c0-0.1,0-0.2,0.1-0.2c0.1-0.3,0.1-0.7,0.1-1c0-0.4,0-0.9-0.1-1.3c0-0.2-0.1-0.3-0.1-0.5s-0.1-0.6-0.2-0.9
			c-0.1-0.2-0.1-0.4-0.2-0.5c-0.1-0.3-0.2-0.6-0.4-0.9l-0.2-0.5c-0.2-0.3-0.3-0.6-0.5-0.9l-0.1-0.2l-0.1-0.2
			c-0.1-0.2-0.2-0.3-0.4-0.5l-0.4-0.5l-0.4-0.5c-0.2-0.2-0.3-0.3-0.5-0.5c-0.1-0.1-0.2-0.2-0.4-0.4c-0.3-0.3-0.6-0.5-0.9-0.7
			c-0.9-0.7-2.2-1-3.3-0.7l0,0h-0.1l-0.2,0.1l-3.2,1.6l2,4l0.3,0.6v0.1l1.2,3.4l0,0l0,0l-4.7,2.4l1,0.6c0.5,0.3,1,0.6,1.1,0.6h0.1
			l0.6,0.1c0,0.2,0,0.4,0,0.6v2l2.6,1.7l3.9,2.5l-0.1,0.5l2.4,6.8l3.3-1.7v-2C387.3,354.8,387.3,354.3,387.3,353.9z"/>
		<path class="st9" d="M377.2,333.8c2.9,2.1,4.7,5.3,4.9,8.9c0,2.4-1.4,3.6-3.2,3.2c3,2.8,5.2,7.4,5.2,11.1v2l-13.8-9v-2
			c0-3.7,2.2-5.4,5.2-4.3c-1.9-2-3-4.6-3.2-7.4C372.2,333.2,374.5,332,377.2,333.8z"/>
		<path class="st9" d="M348.3,162.2l-46.5-29.5c-0.3-0.2-0.6-0.2-0.8,0l0,0l-1.9,0.8l1.9,1.7v35c0,0.6,0.3,1.1,0.8,1.5l45,28.6
			l0.4,2.2l1.9-0.8l0,0c0.3-0.1,0.4-0.3,0.4-0.6v-36.6C349.5,163.5,349,162.7,348.3,162.2z"/>
		
			<linearGradient id="SVGID_44_" gradientUnits="userSpaceOnUse" x1="298.63" y1="332.8209" x2="347.57" y2="332.8209" gradientTransform="matrix(1 6.000000e-02 0 -1 0 481.4498)">
			<stop  offset="0" style="stop-color:#06C9FD"/>
			<stop  offset="0.25" style="stop-color:#04AEF1"/>
			<stop  offset="1" style="stop-color:#0060D0"/>
		</linearGradient>
		<path class="st51" d="M347.6,165.2v36.6c0,0.4-0.3,0.7-0.7,0.7c-0.1,0-0.3,0-0.4-0.1l-47-29.8c-0.5-0.3-0.8-0.9-0.8-1.5v-37
			c0-0.4,0.3-0.7,0.8-0.7c0.1,0,0.3,0,0.4,0.1l46.5,29.4C347.1,163.5,347.6,164.3,347.6,165.2z"/>
		<line class="st52" x1="300.4" y1="139.4" x2="345" y2="167.6"/>
		<path class="st9" d="M337.5,161.4l-1.9-1.2c-0.3-0.2-0.5-0.5-0.5-0.8v-1.9c0-0.3,0.2-0.4,0.5-0.2l1.9,1.2c0.3,0.2,0.5,0.5,0.5,0.8
			v1.9C338,161.6,337.8,161.6,337.5,161.4z"/>
		<path class="st9" d="M341,163.7l-1.9-1.2c-0.3-0.2-0.5-0.5-0.5-0.8v-1.9c0-0.3,0.2-0.4,0.5-0.2l1.9,1.2c0.3,0.2,0.5,0.5,0.5,0.8
			v1.9C341.5,163.8,341.3,163.9,341,163.7z"/>
		<path class="st9" d="M344.6,165.9l-1.9-1.2c-0.3-0.2-0.5-0.5-0.5-0.8V162c0-0.3,0.2-0.4,0.5-0.2l1.9,1.2c0.3,0.2,0.5,0.5,0.5,0.8
			v1.9C345,166,344.8,166.1,344.6,165.9z"/>
		<path class="st9" d="M313.7,151.2v10c0,0.3-0.3,0.6-0.6,0.6c-0.1,0-0.3,0-0.4-0.1l-11.7-7.4c-0.5-0.3-0.8-0.8-0.8-1.4v-10.4
			c0-0.4,0.3-0.7,0.7-0.7c0.1,0,0.3,0,0.4,0.1l11.2,7.1C313.3,149.5,313.7,150.3,313.7,151.2z"/>
		<path class="st9" d="M313.7,165v0.6c0,0.4-0.3,0.6-0.6,0.6c-0.1,0-0.3,0-0.4-0.1l-11.7-7.4c-0.5-0.3-0.8-0.8-0.8-1.4v-1
			c0-0.4,0.3-0.7,0.7-0.7c0.1,0,0.3,0,0.4,0.1l11.2,7.1C313.3,163.4,313.7,164.2,313.7,165z"/>
		<path class="st9" d="M313.7,169v0.6c0,0.3-0.3,0.6-0.6,0.6c-0.1,0-0.3,0-0.4-0.1l-11.7-7.4c-0.5-0.3-0.8-0.8-0.8-1.4v-1
			c0-0.4,0.3-0.7,0.7-0.7c0.1,0,0.3,0,0.4,0.1l11.3,7.1C313.3,167.4,313.7,168.2,313.7,169z"/>
		<path class="st9" d="M313.7,173.1v0.6c0,0.3-0.3,0.6-0.6,0.6c-0.1,0-0.3,0-0.4-0.1l-11.7-7.4c-0.5-0.3-0.8-0.8-0.8-1.4v-1
			c0-0.4,0.3-0.7,0.7-0.7c0.1,0,0.3,0,0.4,0.1l11.3,7.1C313.3,171.5,313.7,172.2,313.7,173.1z"/>
		<path class="st9" d="M313.7,177.1v0.6c0,0.3-0.3,0.6-0.6,0.6c-0.1,0-0.3,0-0.4-0.1l-11.7-7.4c-0.5-0.3-0.8-0.8-0.8-1.4v-1
			c0-0.4,0.3-0.7,0.7-0.7c0.1,0,0.3,0,0.4,0.1l11.2,7.1C313.3,175.5,313.7,176.3,313.7,177.1z"/>
		
			<linearGradient id="SVGID_45_" gradientUnits="userSpaceOnUse" x1="305.0995" y1="354.6847" x2="312.9796" y2="343.9347" gradientTransform="matrix(1 6.000000e-02 0 -1 0 482.8298)">
			<stop  offset="0" style="stop-color:#06D8FD"/>
			<stop  offset="0.34" style="stop-color:#04AEED"/>
			<stop  offset="1" style="stop-color:#0060D0"/>
		</linearGradient>
		<path class="st53" d="M302.7,146.1v0.9l4.1,4.9l4.2,0.3v-0.9c0-0.3-0.2-0.7-0.5-0.8l-7.3-4.6c-0.1-0.1-0.3-0.1-0.4,0.1
			C302.8,146,302.7,146,302.7,146.1z"/>
		
			<linearGradient id="SVGID_46_" gradientUnits="userSpaceOnUse" x1="303.4829" y1="353.4912" x2="311.3529" y2="342.7412" gradientTransform="matrix(1 6.000000e-02 0 -1 0 482.8298)">
			<stop  offset="0" style="stop-color:#06D8FD"/>
			<stop  offset="0.34" style="stop-color:#04AEED"/>
			<stop  offset="1" style="stop-color:#0060D0"/>
		</linearGradient>
		<path class="st54" d="M306.9,152.6l-4.1-4.9v3.9c0,0.4,0.2,0.8,0.6,1l7.2,4.5c0.2,0.1,0.4,0.1,0.5-0.1c0-0.1,0.1-0.1,0.1-0.2v-3.9
			L306.9,152.6z"/>
		<path class="st9" d="M345,170.5v27.5c0,0.2-0.2,0.4-0.4,0.4c-0.1,0-0.2,0-0.2-0.1l-28.7-18.2c-0.3-0.2-0.5-0.5-0.5-0.9v-27.8
			c0-0.2,0.2-0.5,0.4-0.5c0.1,0,0.2,0,0.3,0.1l28.4,18C344.8,169.5,345,170,345,170.5z"/>
		
			<linearGradient id="SVGID_47_" gradientUnits="userSpaceOnUse" x1="323.4443" y1="348.6681" x2="347.7243" y2="312.1381" gradientTransform="matrix(1 6.000000e-02 0 -1 0 482.8298)">
			<stop  offset="0" style="stop-color:#06D8FD"/>
			<stop  offset="0.34" style="stop-color:#04AEED"/>
			<stop  offset="1" style="stop-color:#0060D0"/>
		</linearGradient>
		<path class="st55" d="M318,157.5l24.2,15.3c0.1,0.1,0.3,0.1,0.4-0.1c0-0.1,0.1-0.1,0.1-0.2v-1.5c0-0.3-0.1-0.5-0.3-0.6l-24.2-15.3
			c-0.1-0.1-0.3-0.1-0.4,0.1c0,0.1-0.1,0.1-0.1,0.2v1.5C317.6,157.2,317.8,157.4,318,157.5z"/>
		
			<linearGradient id="SVGID_48_" gradientUnits="userSpaceOnUse" x1="321.4407" y1="347.342" x2="345.7107" y2="310.802" gradientTransform="matrix(1 6.000000e-02 0 -1 0 482.8298)">
			<stop  offset="0" style="stop-color:#06D8FD"/>
			<stop  offset="0.34" style="stop-color:#04AEED"/>
			<stop  offset="1" style="stop-color:#0060D0"/>
		</linearGradient>
		<path class="st56" d="M318,161.9l24.2,15.3c0.1,0.1,0.3,0.1,0.4-0.1c0-0.1,0.1-0.1,0.1-0.2v-1.5c0-0.3-0.1-0.5-0.3-0.6l-24.2-15.3
			c-0.1-0.1-0.3-0.1-0.4,0.1c0,0.1-0.1,0.1-0.1,0.2v1.5C317.7,161.5,317.8,161.8,318,161.9z"/>
		
			<linearGradient id="SVGID_49_" gradientUnits="userSpaceOnUse" x1="319.4227" y1="346.0035" x2="343.7027" y2="309.4636" gradientTransform="matrix(1 6.000000e-02 0 -1 0 482.8298)">
			<stop  offset="0" style="stop-color:#06D8FD"/>
			<stop  offset="0.34" style="stop-color:#04AEED"/>
			<stop  offset="1" style="stop-color:#0060D0"/>
		</linearGradient>
		<path class="st57" d="M318,166.2l24.2,15.3c0.1,0.1,0.3,0.1,0.4-0.1c0-0.1,0.1-0.1,0.1-0.2v-1.5c0-0.3-0.1-0.5-0.3-0.6l-24.2-15.3
			c-0.1-0.1-0.3-0.1-0.4,0.1c0,0.1-0.1,0.1-0.1,0.2v1.5C317.7,165.9,317.8,166.1,318,166.2z"/>
		
			<linearGradient id="SVGID_50_" gradientUnits="userSpaceOnUse" x1="317.4104" y1="344.662" x2="341.6904" y2="308.122" gradientTransform="matrix(1 6.000000e-02 0 -1 0 482.8298)">
			<stop  offset="0" style="stop-color:#06D8FD"/>
			<stop  offset="0.34" style="stop-color:#04AEED"/>
			<stop  offset="1" style="stop-color:#0060D0"/>
		</linearGradient>
		<path class="st58" d="M318,170.6l24.2,15.3c0.1,0.1,0.3,0.1,0.4-0.1c0-0.1,0.1-0.1,0.1-0.2v-1.5c0-0.3-0.1-0.5-0.3-0.6l-24.2-15.3
			c-0.1-0.1-0.3-0.1-0.4,0.1c0,0.1-0.1,0.1-0.1,0.2v1.4C317.6,170.3,317.8,170.5,318,170.6z"/>
		
			<linearGradient id="SVGID_51_" gradientUnits="userSpaceOnUse" x1="315.3977" y1="343.3201" x2="339.6677" y2="306.7801" gradientTransform="matrix(1 6.000000e-02 0 -1 0 482.8298)">
			<stop  offset="0" style="stop-color:#06D8FD"/>
			<stop  offset="0.34" style="stop-color:#04AEED"/>
			<stop  offset="1" style="stop-color:#0060D0"/>
		</linearGradient>
		<path class="st59" d="M318,175l24.2,15.3c0.1,0.1,0.3,0.1,0.4-0.1c0-0.1,0.1-0.1,0.1-0.2v-1.5c0-0.3-0.1-0.5-0.3-0.6l-24.2-15.3
			c-0.1-0.1-0.3-0.1-0.4,0.1c0,0.1-0.1,0.1-0.1,0.2v1.5C317.7,174.6,317.8,174.9,318,175z"/>
		
			<linearGradient id="SVGID_52_" gradientUnits="userSpaceOnUse" x1="313.3771" y1="341.9799" x2="337.6571" y2="305.4499" gradientTransform="matrix(1 6.000000e-02 0 -1 0 482.8298)">
			<stop  offset="0" style="stop-color:#06D8FD"/>
			<stop  offset="0.34" style="stop-color:#04AEED"/>
			<stop  offset="1" style="stop-color:#0060D0"/>
		</linearGradient>
		<path class="st60" d="M318,179.4l24.2,15.3c0.1,0.1,0.3,0.1,0.4-0.1c0-0.1,0.1-0.1,0.1-0.2V193c0-0.3-0.1-0.5-0.3-0.6l-24.2-15.3
			c-0.1-0.1-0.3-0.1-0.4,0.1c0,0.1-0.1,0.1-0.1,0.2v1.5C317.7,179,317.8,179.2,318,179.4z"/>
		<path class="st61" d="M294.7,86.3c0,0-8,0.6-11,1.7c-4,1.4-5.7,5.9-3.8,8.6s17.1,2.1,17.1,2.1L294.7,86.3z"/>
		<path class="st10" d="M305.6,85c-5.1-0.2-10.3,0.9-14.9,1.5c-0.7,0.1-2.9,5.2,1.3,13.2c5.1,0.2,12.4,1,12.4,1S309.2,85.2,305.6,85
			z"/>
		<path class="st10" d="M338.8,103.9c-0.1,0.3-4.1,9.1-5.1,12.1c-0.4,1.2-0.8,2.5-1.3,3.7L302,100.5c-0.7-9.4,1.9-15.6,3-15.5
			c11.9,0.9,23.8,6.6,28.9,12.2C335.8,99.2,337.5,101.5,338.8,103.9z"/>
		<path class="st62" d="M319.2,84.4l3.8,5.5c0.5,1,0.3,2.2-0.5,3c-1.9,2.3-6,3.1-7.9,1.6c-0.9-0.6-0.5-2.6-1.7-4.4l4.5-4.1
			L319.2,84.4z"/>
		<path class="st61" d="M303.2,79.9c0.4,2.9,1.1,5.8,2.3,8.5c1.8,3.9,2.2,4.8,4,5.2s3.3,0.2,5.7-2.2c1.5-1.6,2.7-3.5,3.3-5.6
			c0,0,0.5,0.2,1.2-1.2c1.1-1.6,1.4-3.6,0.8-5.4c-0.6-3-2.1-5.8-4.2-8c-2.5-2.7-8-0.6-10.3,1.3S303.2,77.1,303.2,79.9z"/>
		<path class="st26" d="M319.6,71.3c-0.8-0.7-1.9-1.1-3-1.1c0,0-5.4-3.6-9.9-0.1c-2,1.6-3.6,3.6-4.7,5.9c-0.7,1.5-2.9,7.4,1.7,8.8
			c2,0.6,4.2,0.6,6.3,0.1c1.1-0.5,2-1.3,2.5-2.4c0.6,0.4,1.3,0.5,2.1,0.6c0.6,0.3,1.2,0.8,1.6,1.4l0.6-0.6c-0.2-0.9-0.3-1.8-0.2-2.7
			c0.1-1,0.9-1.6,1.9-1.6c0.4,0,0.8,0.2,1.1,0.6c1.1,1.1,0.3,3.4-0.1,4.6l0.6,0.8c1-2.4,1.5-4.9,1.5-7.5
			C321.3,74.1,320.4,72.2,319.6,71.3z"/>
		<path class="st61" d="M302.7,123.2c-0.2-0.2-0.4-0.4-0.7-0.5c0.3,0.1,0.5,0.2,0.6,0.1c0.2-0.2,0.1-0.6-0.1-0.8
			c-0.4-0.4-0.8-0.8-1.3-1.1c-0.2-0.2-0.5-0.5-0.6-0.6c-0.5-0.7-1-1.4-1.2-2.2c0.1-0.1,0.5,0.6,1.4,1s1.5,0.2,1.4-0.1
			c-0.5-1.1-1.1-2.1-1.8-3c-0.7-0.8-2.6-1.4-3.3-1.8c-0.5-0.3-0.8-0.7-1-1.3c-1.1-2.7-2.8-6.8-4.5-10.8c-2.2-5.3-2.1-6.9-3.5-8.8
			c-3.8-5.6-6.6-4.3-6.6-4.3c-2.4,1.9-3.4,5.1-2.6,8c0.6,2.2,2,4.3,4.2,7.5c3,4.2,6.2,8.1,9.6,11.9c1.2,1.4,1.6,4.2,2.1,5.1
			c0.3,0.5,3,3.2,4.8,3.2c0.2,0,0.1-0.3,0.1-0.5c0.5,0.3,1,0.4,1.6,0.5c0.4,0,0.1-0.6-0.2-0.9l0,0c0.5,0.3,1,0.4,1.5,0.6
			C303,124.1,303,123.8,302.7,123.2z"/>
		<path class="st61" d="M342.5,112.6l-10.8,4.7l3,8.7c0,0-5.4,10.4-8.6,16.8l0,0c0,0-3.9,2.1-4.7,2.4c-0.9,0.6-1.7,1.5-2.1,2.5
			c-0.3,1.3-0.5,2.7-0.5,4.1l0,0c-0.1,0.6,0,1.3,0.1,1.9c0.2,0.2,0.7,0.2,1-0.3c-0.1,0.8-0.1,1.7,0,1.8c0.5,0.4,1-0.5,1-0.6
			c0,0.1,0,0.2,0.1,0.3c0.4,0.3,1,0.1,1.3-0.3c0,0,0-0.1,0.1-0.1c1.3,0.6,2-1.3,2-1.3c0.5-0.6,1.1-1.2,1.6-1.7
			c0.8-0.5,3.5-0.8,4.3-4.5l0,0c0.7-1.4,1.6-2.7,2.7-3.7c4.5-4.6,11.3-11.2,12.6-17.5C346.2,121.7,342.5,112.6,342.5,112.6z"/>
		<path class="st10" d="M334.5,98.2c1.7,1.7,3.1,3.6,4.3,5.7c2.5,4.1,4.5,8.6,5.9,13.2c0,0,0.9,4.9-13.2,6.6l-9.5-18L334.5,98.2z"/>
		<path class="st62" d="M290.4,98.6c-0.7-1.7-1.5-3.3-2.5-4.8c1.4,1.4,2.5,3,3.3,4.8L290.4,98.6z"/>
		
			<linearGradient id="SVGID_53_" gradientUnits="userSpaceOnUse" x1="301.95" y1="391.1848" x2="328.03" y2="391.1848" gradientTransform="matrix(1 0 0 -1 0 499.8898)">
			<stop  offset="0" style="stop-color:#00A7E5"/>
			<stop  offset="0.36" style="stop-color:#02B3ED;stop-opacity:0.66"/>
			<stop  offset="1" style="stop-color:#06C9FD;stop-opacity:0"/>
		</linearGradient>
		<polygon class="st63" points="304.4,100.7 326.9,114.8 328,116.9 302,100.5 		"/>
		<path class="st64" d="M439.9,363l-31-19.5c-0.6-0.4-1.4-0.4-2-0.1l0,0l-2.8,1.5c0,0,1.1,1.6,1.1,1.9c0,0.1,0.1,0.1,0.1,0.1V374
			c0,1.5,0.8,2.9,2.1,3.7l32.2,20.3l-0.4,0.9v0.5l2.9-1.5c0.6-0.3,0.9-0.9,0.9-1.5v-27.7C443,366.4,441.8,364.2,439.9,363z"/>
		
			<linearGradient id="SVGID_54_" gradientUnits="userSpaceOnUse" x1="403.03" y1="127.8098" x2="440.25" y2="127.8098" gradientTransform="matrix(1 0 0 -1 0 499.8898)">
			<stop  offset="0" style="stop-color:#069AFD"/>
			<stop  offset="1" style="stop-color:#0061FF"/>
		</linearGradient>
		<path class="st65" d="M440.2,370.1v27.7c0,1-0.8,1.8-1.8,1.8c-0.4,0-0.7-0.1-1-0.3l-32.4-20.3c-1.3-0.8-2.1-2.2-2.1-3.7v-28.7
			c0-1.1,0.9-1.9,1.9-1.9c0.4,0,0.8,0.1,1.1,0.3l31,19.5C439,365.7,440.2,367.8,440.2,370.1z"/>
		<path class="st66" d="M417.6,361.3l9.1,13.4c0.1,0.1,0.1,0.4-0.1,0.5c0,0-0.1,0-0.1,0.1l-9.1,1.9c-0.2,0-0.4-0.1-0.4-0.3
			c0,0,0-0.1,0-0.1v-15.3c0-0.2,0.1-0.3,0.3-0.3C417.5,361.1,417.6,361.2,417.6,361.3z"/>
		<path class="st20" d="M269.1,408.8v0.1c0,0.5-0.2,1-0.5,1.3c-1.4,1.6-4.7,2.3-5.4,2.4h-0.1c-1.9,0.3-3.9,0.4-4.8,0.5
			c-0.6,0.1-1.2,0.2-1.8,0.3v0.2c-0.8,0.2-1.7,0.4-2.6,0.4l0,0c-1,0.1-1.9-0.1-2.8-0.6c-0.4-0.4-0.6-0.8-0.8-1.3v-0.8l2.4-0.2l0,0
			l1.2-0.1l1.1-0.1l1-0.1L269.1,408.8z"/>
		<path class="st10" d="M258.6,405.2c0,0,2.2,0.4,3.9,0.5c1.7,0.1,3.5,0.3,5.2,0.6c1,0.3,1.6,1.3,1.4,2.3c-0.3,2.2-5.4,3.6-8.6,3.9
			c-1.6,0.1-3.3,0.2-4.9,0.5c-1.3,0.3-2.7,0.3-4.1-0.1c-1.7-0.8-1.8-4.4-0.8-6S258.6,405.2,258.6,405.2z"/>
		<path class="st21" d="M251.7,403.1c0,0-0.1,2.5-0.2,3s-0.3,0.9-0.2,1.3c0.1,0.6,1.6,1.3,3.7,1c1.6-0.1,3.1-0.8,4.1-2
			c0.4-0.6-0.2-0.8-0.3-1.1c-0.2-0.4,0-4.2-0.3-2.9"/>
		<path class="st20" d="M244.6,391.9c0.1,0.6,0.1,1.2-0.1,1.8c-0.3,0.8-0.8,1.6-1.4,2.2c-0.7,0.7-1.4,1.4-2.3,1.9
			c-0.7,0.4-1.3,0.8-1.9,1.3c-0.5,0.6-1,1.2-1.4,1.8v0.4c-0.5,0.6-1.2,1.1-1.9,1.5c-1.1,0.5-2.4,0.6-3.5,0.2c-0.9-0.3-1.5-1.1-1.6-2
			c0-0.3,0-1.3,0-1.3"/>
		<path class="st10" d="M236,393.3c1.5-0.5,2.9-1.1,4.2-1.9c2.1-1.5,3.6-1.1,4.1-0.2s0.7,3.9-3.7,6.5c-1.2,0.6-2.2,1.6-3,2.7
			c-0.5,0.8-1.2,1.4-2.1,1.9c-0.7,0.3-1.5,0.5-2.3,0.4c-3-0.2-3.7-3.3-2.2-5.6S236,393.3,236,393.3z"/>
		<path class="st21" d="M231.4,394.6l-0.1,2.3c-0.2,0.3-0.2,0.7-0.2,1c0.1,0.6,1.9,1.8,4.3,0.5c2.7-1.4,2.4-3.5,2.4-3.6
			c0.1-1-0.4,0-0.4-0.8"/>
		
			<linearGradient id="SVGID_55_" gradientUnits="userSpaceOnUse" x1="230.4612" y1="134.5556" x2="268.3269" y2="134.5556" gradientTransform="matrix(1 0 0 -1 0 499.8898)">
			<stop  offset="0" style="stop-color:#170960"/>
			<stop  offset="1" style="stop-color:#24188B"/>
		</linearGradient>
		<path class="st67" d="M267.5,355.6c-0.9,7.6-3.6,20.5-4.5,27s-2.8,21.4-2.8,21.4s-1,1.5-4.5,2s-4.9-1.6-4.9-1.6
			s-1.1-20.8-0.9-24.6s1.4-10.8,1.2-14.5c-0.1-2.7-0.1-9-1.4-14.6c-0.2,0.6-0.4,1.1-0.6,1.6c-2,4.5-5.8,14.2-6.8,17.9
			s-3.6,24.8-3.6,24.8c-0.3,0.4-0.6,0.8-1.1,1.1c-0.8,0.6-1.8,1-2.7,1.2c-3.1,0.9-4.2-0.9-4.2-0.9c-0.4-2.2-0.1-26.4,1-30.5
			c1.2-4.8,2.1-9.6,2.6-14.5c0.2-4,0.7-12.7,0.2-17.9c-0.2-1.7,0-3.4,0.4-5.1c0.3-1.3,0.8-2.6,1.5-3.8c0,0,30.2,1.6,31.2,6.2
			c0.3,1.5,0.5,2.9,0.6,4.4C268.5,342,268.3,348.9,267.5,355.6z"/>
		<path class="st68" d="M249.7,350.8c-0.2,0.6-0.4,1.1-0.6,1.6c-1.1-2.3-2.2-4.5-3.6-6.6c-1.7-2.6-2.7-5.6-2.9-8.7
			c1,4.5,5.2,8.2,5.2,8.2L249.7,350.8z"/>
		<path class="st21" d="M257.6,270.1c-0.7,0.4-1.4,0.7-2.1,0.9h-0.1l-0.2,0c-0.1,0-0.3,0.1-0.6,0.2c-0.2,0.1-0.4,0.2-0.4,0.4
			c-0.3,0.7,0,5,0,5l-1.3-0.5l-8.1-2.8c0,0,0.1-2.2,0-4.2s-0.3-12.8,2.4-14.6s10.3-0.7,11.2,0.3c0,0,0.2,1.6,0.8,4.7
			S259.2,269.1,257.6,270.1z"/>
		<path class="st69" d="M246.8,251c-3.8,1.3-6.2,5.1-5.8,9.1c0.2,3.1,1.9,5.3,2.4,6.3s0.5,1.6,0.8,2.2s3.4,3.1,6.4,2.3
			c1.4-0.4,2-2.4,2.1-3.3s0.2-3.3,0.4-4s1-1.5,1.5-1.4s0.9,1.1,1.1,2s0.7,1,0.9,0.7s0.1-2.6,0.2-3.3s1.4-1.3,1.5-3.5
			c0.2-0.9,0.6-1.8,1-2.7c1.3-4.2-2.6-6.8-5.4-7.5C251.1,247.3,249.2,250.2,246.8,251z"/>
		
			<linearGradient id="SVGID_56_" gradientUnits="userSpaceOnUse" x1="261.98" y1="202.6548" x2="291.16" y2="202.6548" gradientTransform="matrix(1 0 0 -1 0 499.8898)">
			<stop  offset="0" style="stop-color:#170960"/>
			<stop  offset="1" style="stop-color:#24188B"/>
		</linearGradient>
		<polygon class="st70" points="262,275.9 262,300.4 291.2,318.6 291.2,294.1 		"/>
		
			<linearGradient id="SVGID_57_" gradientUnits="userSpaceOnUse" x1="241.37" y1="206.3898" x2="261.98" y2="206.3898" gradientTransform="matrix(1 0 0 -1 0 499.8898)">
			<stop  offset="0" style="stop-color:#FFD30E"/>
			<stop  offset="0.39" style="stop-color:#FFAD08"/>
			<stop  offset="0.78" style="stop-color:#FF8D02"/>
			<stop  offset="1" style="stop-color:#FF8100"/>
		</linearGradient>
		<polygon class="st71" points="262,275.9 262,300.4 241.4,311.1 241.4,286.6 		"/>
		
			<linearGradient id="SVGID_58_" gradientUnits="userSpaceOnUse" x1="271.7863" y1="221.1898" x2="271.6763" y2="199.5199" gradientTransform="matrix(1 0 0 -1 0 499.8898)">
			<stop  offset="0" style="stop-color:#00FFF9"/>
			<stop  offset="0.5" style="stop-color:#00AEE3"/>
			<stop  offset="1" style="stop-color:#0060CE"/>
		</linearGradient>
		<path class="st72" d="M288.4,288.9L278,304.8c-0.2,0.3-0.7,0.4-1,0.2L255.3,292c-0.4-0.2-0.5-0.7-0.3-1.1c0,0,0,0,0,0l10.6-16.3
			c0.2-0.3,0.7-0.4,1-0.2l21.4,13.4C288.5,288.1,288.6,288.5,288.4,288.9C288.4,288.9,288.4,288.9,288.4,288.9z"/>
		
			<linearGradient id="SVGID_59_" gradientUnits="userSpaceOnUse" x1="254.1096" y1="229.9684" x2="262.9096" y2="206.6484" gradientTransform="matrix(1 0 0 -1 0 499.8898)">
			<stop  offset="0" style="stop-color:#00FFF9"/>
			<stop  offset="0.5" style="stop-color:#00AEE3"/>
			<stop  offset="1" style="stop-color:#0060CE"/>
		</linearGradient>
		<path class="st73" d="M264.7,299.4l-7.3,0.4c-0.5,0-1-0.3-1-0.8c0,0,0,0,0,0l-1-23.9c0-0.5,0.4-0.9,0.9-1l7.3-0.4
			c0.5,0,1,0.3,1,0.8c0,0,0,0,0,0l1,23.9C265.5,298.9,265.1,299.4,264.7,299.4z"/>
		
			<linearGradient id="SVGID_60_" gradientUnits="userSpaceOnUse" x1="270.48" y1="203.3353" x2="278.23" y2="189.0653" gradientTransform="matrix(1 0 0 -1 0 499.8898)">
			<stop  offset="0" style="stop-color:#00FFF9"/>
			<stop  offset="0.5" style="stop-color:#00AEE3"/>
			<stop  offset="1" style="stop-color:#0060CE"/>
		</linearGradient>
		<path class="st74" d="M279.7,310.3h-11.7c-0.4,0-0.7-0.3-0.7-0.7l-0.7-14.8c0-0.4,0.3-0.7,0.7-0.7c0,0,0,0,0,0H279
			c0.4,0,0.7,0.3,0.7,0.7l0.8,14.8C280.5,309.9,280.2,310.2,279.7,310.3C279.8,310.3,279.7,310.3,279.7,310.3z"/>
		
			<linearGradient id="SVGID_61_" gradientUnits="userSpaceOnUse" x1="270.55" y1="188.1698" x2="291.16" y2="188.1698" gradientTransform="matrix(1 0 0 -1 0 499.8898)">
			<stop  offset="0" style="stop-color:#069AFD"/>
			<stop  offset="1" style="stop-color:#0061FF"/>
		</linearGradient>
		<polygon class="st75" points="291.2,294.1 291.2,318.6 270.5,329.4 270.5,304.8 		"/>
		
			<linearGradient id="SVGID_62_" gradientUnits="userSpaceOnUse" x1="241.37" y1="191.9048" x2="270.55" y2="191.9048" gradientTransform="matrix(1 0 0 -1 0 499.8898)">
			<stop  offset="0" style="stop-color:#069AFD"/>
			<stop  offset="1" style="stop-color:#0061FF"/>
		</linearGradient>
		<polygon class="st76" points="241.4,286.6 241.4,311.1 270.5,329.4 270.5,304.8 		"/>
		<path class="st77" d="M290.9,317.3c-0.5-0.2-1-0.4-1.5-0.5c-1,0-2.1-0.1-3-0.4c-0.9-0.5-1.8-1.1-2.6-1.9l0,0
			c-2.6-2.5-6.6-6.4-9.1-8.6c-0.6-1.8-1.8-5.8-2.1-6.4c-1,1.9-2.7,3.3-4.7,4.1c-3,1.1-4.6,0.1-4.8,0l0,0c0.1,0.3,0.3,0.6,0.4,0.8
			c0.5,0.9,1.5,2.6,2.1,3.6c0.6,1.5,1.8,2.7,3.3,3.4c0,0,5.3,3.1,10,5.2c1.7,0.8,3.3,1.7,4.8,2.8c0.9,1.1,2,2.3,2.5,2.3
			c0.8,0,1.2-0.4,1.8-0.4s1-0.5,1.2-0.6c0.3-0.1,0.7-0.3,0.9-0.5c0.3-0.3,0.3-1.6,0.3-1.6l-0.7,0.4c0,0-1-0.6-1.1-0.9
			c-0.1-0.1,0-0.3,0.1-0.4c0.5-0.1,1-0.1,1.5-0.1C290.7,318,291,317.5,290.9,317.3z"/>
		<path class="st77" d="M272.9,300.3c-1.1,1.2-2.4,2.2-3.9,3c1.5-0.9,2.7-2.1,3.6-3.6L272.9,300.3z"/>
		<path class="st10" d="M273.5,299.7c0,0-0.2,0.3-0.6,0.7c-1.1,1.2-2.4,2.2-3.9,3c-0.2,0.1-0.3,0.2-0.5,0.3
			c-0.2,0.1-0.4,0.1-0.6,0.2c-0.2,0.1-0.5,0.2-0.8,0.2c-1.2,0.4-2.4,0.4-3.5,0l-0.2-0.1l-0.2-0.1h-0.1l0,0l0,0
			c0.1,0.3,0.3,0.6,0.4,0.9c0.7,1.3,2.4,4.1,2.5,4.4l0,0c-0.1,3.7,0.2,7.4,1.1,11c0.6,3.6,1,7.2,1.1,10.8l0,0c0.2,3.5,0.3,9.4,0,7.7
			c-0.2-0.7-1.7-5.7-2-5.7c-0.4,0.8-0.6,1.6-0.8,2.4c-0.8,3.4-3.8,5.9-7.3,5.9c-0.7,0-1.5,0-2.2-0.1l0,0
			c-5.7-1.4-16.9-8.8-19.7-10.4c-1.3-0.8-2.1-2.4-1.9-3.9l0,0c0.1-0.5,0.2-1,0.2-1.3l0,0c0.1-0.5,0.1-0.8,0.1-0.8
			c0.5-4,1.3-7.9,2.4-11.8c1.6-5.3,1.4-9.2-2-15.2c-4.3-7.5-6.2-17.8-1.7-22.2c2.1-2.4,5.6-3.1,8.5-1.9l1.1-1.1
			c4.8,1.1,9.3,2.9,13.6,5.4v1.1l0.4,0.2c5.1,2.4,9.3,5.1,11.3,8.8C270.3,291.7,272,295.6,273.5,299.7z"/>
		
			<linearGradient id="SVGID_63_" gradientUnits="userSpaceOnUse" x1="247.04" y1="222.7448" x2="256.49" y2="222.7448" gradientTransform="matrix(1 0 0 -1 0 499.8898)">
			<stop  offset="0" style="stop-color:#00A7E5"/>
			<stop  offset="0.36" style="stop-color:#02B3ED;stop-opacity:0.66"/>
			<stop  offset="1" style="stop-color:#06C9FD;stop-opacity:0"/>
		</linearGradient>
		<path class="st78" d="M256.5,278.5v0.5c0,0-6.1-2.6-9.4-3.7C250.3,276.1,253.4,277.2,256.5,278.5z"/>
		
			<linearGradient id="SVGID_64_" gradientUnits="userSpaceOnUse" x1="257.99" y1="193.2898" x2="266.58" y2="193.2898" gradientTransform="matrix(1 0 0 -1 0 499.8898)">
			<stop  offset="0" style="stop-color:#00A7E5"/>
			<stop  offset="0.36" style="stop-color:#02B3ED;stop-opacity:0.66"/>
			<stop  offset="1" style="stop-color:#06C9FD;stop-opacity:0"/>
		</linearGradient>
		<path class="st79" d="M266.6,317c-0.7-2.6-1.7-5.1-2.8-7.6c-2.1-4.7-4.1-8.5-5.8-13.2l3.8,6.8l1.3,0.9l0,0
			c0.1,0.3,0.2,0.6,0.4,0.8c0.7,1.3,2.4,4.2,2.5,4.4l0,0l0,0C265.9,311.7,266.1,314.4,266.6,317z"/>
		
			<linearGradient id="SVGID_65_" gradientUnits="userSpaceOnUse" x1="99.85" y1="417.1381" x2="120.49" y2="417.1381" gradientTransform="matrix(1 0 0 -1 0 499.8898)">
			<stop  offset="0" style="stop-color:#3660CD"/>
			<stop  offset="1" style="stop-color:#1627F9"/>
		</linearGradient>
		<path class="st80" d="M118.1,77.2l-13.9-8.7c-0.5-0.3-1.1-0.3-1.5,0L99.8,70l1.4,1.2h0.7v11.6c0,1.7,0.9,3.3,2.4,4.2l12.2,7.7
			l-0.2,1.6l0.7,0.9l2.7-1.5h0.1l0,0l0,0c0.4-0.3,0.7-0.7,0.7-1.2v-13C120.5,79.8,119.6,78.1,118.1,77.2z"/>
		<path class="st81" d="M115.4,97.3l-13.9-8.7c-1.5-0.9-2.4-2.5-2.4-4.3v-13c0-0.8,0.7-1.5,1.5-1.5c0.3,0,0.6,0.1,0.8,0.2l13.9,8.7
			c1.5,0.9,2.4,2.5,2.4,4.3v13c0,0.8-0.6,1.5-1.5,1.5C115.9,97.5,115.7,97.4,115.4,97.3z"/>
		<path class="st9" d="M166.9,108.6L166.9,108.6c0,0.4-0.3,0.7-0.7,0.7c-0.1,0-0.2,0-0.3-0.1l-40.6-25.6c-0.5-0.3-0.8-0.8-0.8-1.4
			l0,0c0-0.4,0.3-0.7,0.7-0.6c0.1,0,0.2,0,0.3,0.1l40.6,25.6C166.6,107.5,166.9,108.1,166.9,108.6z"/>
		<path class="st9" d="M165,114.1l-39.6-25c-0.5-0.3-0.8-0.8-0.8-1.4l0,0c0-0.4,0.3-0.7,0.7-0.6c0.1,0,0.2,0,0.3,0.1l39.6,25
			c0.5,0.3,0.8,0.8,0.8,1.4l0,0c0,0.4-0.3,0.7-0.7,0.6C165.2,114.2,165.1,114.1,165,114.1z"/>
		<path class="st9" d="M154.1,111.5L154.1,111.5c0,0.4-0.3,0.7-0.7,0.6c-0.1,0-0.2,0-0.3-0.1l-27.8-17.5c-0.5-0.3-0.8-0.8-0.8-1.4
			l0,0c0-0.4,0.3-0.7,0.7-0.6c0.1,0,0.2,0,0.3,0.1l27.8,17.5C153.8,110.4,154.1,110.9,154.1,111.5z"/>
		<path class="st9" d="M138.1,106.9L138.1,106.9c0,0.4-0.3,0.7-0.7,0.7c-0.1,0-0.2,0-0.3-0.1l-11.8-7.4c-0.5-0.3-0.8-0.8-0.8-1.4
			l0,0c0-0.4,0.3-0.7,0.7-0.7c0.1,0,0.2,0,0.3,0.1l11.8,7.4C137.8,105.8,138.1,106.3,138.1,106.9z"/>
		
			<linearGradient id="SVGID_66_" gradientUnits="userSpaceOnUse" x1="99.47" y1="332.606" x2="133.8405" y2="332.606" gradientTransform="matrix(1 0 0 -1 0 499.8898)">
			<stop  offset="0" style="stop-color:#00FFF9"/>
			<stop  offset="0.41" style="stop-color:#39FFFC"/>
			<stop  offset="1" style="stop-color:#86FFFF"/>
		</linearGradient>
		<path class="st82" d="M129.9,151.8L104.7,136c-1.6-1-3.7-0.5-4.7,1.1c-0.3,0.5-0.5,1.2-0.5,1.8v36.6c0,2.9,1.5,5.6,3.9,7.1
			l25.2,15.9c0.5,0.3,1.2,0.5,1.8,0.5c0.6,0,1.1-0.2,1.6-0.4c1.1-0.6,1.8-1.8,1.8-3V159C133.9,156.1,132.4,153.4,129.9,151.8z
			 M101.7,136.7c0.4-0.2,0.8-0.3,1.2-0.3c0.5,0,0.9,0.1,1.3,0.4l25.2,15.9c2.2,1.4,3.5,3.7,3.5,6.3v2.8l-32.4-20.4v-2.6
			C100.5,138,100.9,137.1,101.7,136.7z M131.6,197.7c-0.8,0.4-1.7,0.4-2.4-0.1L104,181.8c-2.2-1.4-3.5-3.7-3.5-6.3v-32.9l32.3,20.4
			v32.7C132.8,196.5,132.4,197.3,131.6,197.7L131.6,197.7z"/>
		<path class="st9" d="M166.9,175.9L166.9,175.9c0,0.4-0.3,0.7-0.7,0.7c-0.1,0-0.2,0-0.3-0.1l-27-17c-0.5-0.3-0.8-0.8-0.8-1.4l0,0
			c0-0.4,0.3-0.7,0.7-0.7c0.1,0,0.2,0,0.3,0.1l27,17C166.7,174.8,166.9,175.3,166.9,175.9z"/>
		<path class="st9" d="M164.4,179.7L164.4,179.7c0,0.4-0.3,0.7-0.7,0.7c-0.1,0-0.2,0-0.3-0.1L139,164.9c-0.5-0.3-0.8-0.8-0.8-1.4
			l0,0c0-0.4,0.3-0.7,0.7-0.7c0.1,0,0.2,0,0.3,0.1l24.4,15.4C164.1,178.6,164.4,179.1,164.4,179.7z"/>
		<path class="st9" d="M166.9,186.8L166.9,186.8c0,0.4-0.3,0.7-0.7,0.7c-0.1,0-0.2,0-0.3-0.1l-27-17c-0.5-0.3-0.8-0.8-0.8-1.4l0,0
			c0-0.4,0.3-0.7,0.7-0.6c0.1,0,0.2,0,0.3,0.1l27,17C166.6,185.7,166.9,186.2,166.9,186.8z"/>
		<path class="st9" d="M153.4,183.7L153.4,183.7c0,0.4-0.3,0.7-0.7,0.6c-0.1,0-0.2,0-0.3-0.1l-13.4-8.4c-0.5-0.3-0.8-0.8-0.8-1.4
			l0,0c0-0.4,0.3-0.7,0.7-0.7c0.1,0,0.2,0,0.3,0.1l13.4,8.4C153.1,182.6,153.4,183.1,153.4,183.7z"/>
		<path class="st77" d="M307,456c0,0-0.1,2.3-0.1,2.7s-0.2,0.8-0.2,1.1c0.1,0.6,5.3,10.9,7.8,10.6c1.9-0.2,4.5-2.1,1.5-3.2
			c-1.5-0.9-2.5-9-2.6-9.3s0-3.7-0.2-2.6L307,456z"/>
		<path class="st77" d="M296.1,451.5c0,0-0.1,2.2-0.1,2.7s-0.2,0.8-0.2,1.1c0.1,0.6,5.3,10.9,7.8,10.6c1.9-0.2,4.5-2.1,1.5-3.2
			c-1.5-0.9-2.5-9-2.6-9.3s0-3.7-0.2-2.6L296.1,451.5z"/>
		<path class="st83" d="M293.5,430.1c-0.4,7.5,2.1,22.6,2.1,22.6s1.4,2.4,7-0.8c0,0,0.9-22.6,1.8-29c0.2-1.7,0.6-3.5,1-5.2l0,0
			c1.2-4,2-8.1,2.2-12.3c0.2-3.6-0.5-10.9-1.1-17.3s-1.4-12.1-1.4-12.1c-3.6,0-7.1-1.4-9.8-3.8c0,0-6.7,9-2.4,18.5
			c1,2.2,1.5,4.6,1.7,7c0.2,3.2,0.6,7.6,0.7,11.4c0.2,6.2,0.7,8,0.4,8.7S293.9,422.5,293.5,430.1z"/>
		
			<linearGradient id="SVGID_67_" gradientUnits="userSpaceOnUse" x1="300.1545" y1="99.3348" x2="307.7545" y2="99.3348" gradientTransform="matrix(1 0 0 -1 0 499.8898)">
			<stop  offset="0" style="stop-color:#00A7E5"/>
			<stop  offset="0.36" style="stop-color:#02B3ED;stop-opacity:0.66"/>
			<stop  offset="1" style="stop-color:#06C9FD;stop-opacity:0"/>
		</linearGradient>
		<path class="st84" d="M302,397c1.8,6.8,2.9,13.7,3.5,20.7c1.2-4,2-8.1,2.2-12.3c0.2-3.6-0.5-10.9-1.1-17.3c-2.1-1.7-6-4.7-6-4.7
			S299,389.4,302,397z"/>
		<path class="st83" d="M317.3,375.3c1.5,6.3,2.5,12.7,2.9,19.2c0.5,9.8-1.7,23.8-2.2,27.1s-1.5,8.5-2.5,16.8
			c-0.9,7.8-1.5,17.7-1.5,17.7s-5.6,3.2-7.8,0.4c0,0-1.4-22-0.7-28.9s2-7.3,1.9-9.5s-2.6-20.6-3.7-22.2s-6.2-8.9-0.8-20.2
			C307.6,376.7,312.6,376.5,317.3,375.3z"/>
		
			<linearGradient id="SVGID_68_" gradientUnits="userSpaceOnUse" x1="306.4886" y1="151.1869" x2="348.5615" y2="151.1869" gradientTransform="matrix(1 0 0 -1 0 499.8898)">
			<stop  offset="0" style="stop-color:#069AFD"/>
			<stop  offset="1" style="stop-color:#0061FF"/>
		</linearGradient>
		<path class="st85" d="M348.2,347.4l-12.9,20.4c-0.6,0.9-1.8,1.2-2.8,0.6c0,0,0,0,0,0l-25.1-15.8c-0.9-0.6-1.2-1.8-0.7-2.8
			c0,0,0,0,0-0.1l5.5-8.3l7.8-11.9c0.6-0.9,1.8-1.2,2.8-0.6c0,0,0,0,0,0l24.7,15.6C348.6,345.2,348.8,346.4,348.2,347.4
			C348.3,347.4,348.2,347.4,348.2,347.4z"/>
		
			<linearGradient id="SVGID_69_" gradientUnits="userSpaceOnUse" x1="308.5602" y1="151.1847" x2="346.4948" y2="151.1847" gradientTransform="matrix(1 0 0 -1 0 499.8898)">
			<stop  offset="0" style="stop-color:#069AFD"/>
			<stop  offset="0.22" style="stop-color:#05B1FD"/>
			<stop  offset="1" style="stop-color:#00FFFF"/>
		</linearGradient>
		<path class="st86" d="M346.2,347.5l-11.6,18.4c-0.5,0.8-1.7,1.1-2.5,0.6l-22.6-14.3c-0.9-0.5-1.1-1.7-0.6-2.5c0,0,0,0,0,0l4.9-7.5
			l7.1-10.7c0.5-0.8,1.7-1.1,2.5-0.5l22.3,14.1C346.5,345.5,346.8,346.7,346.2,347.5C346.2,347.5,346.2,347.5,346.2,347.5z"/>
		<path class="st77" d="M336.1,356.8c0.3-0.3,0.5-0.6,0.7-1c0.1-0.6,0.3-1.1,0.7-1.6c0.5-0.6,1.9-3,2.2-2.9c0.4,0.5,0.6,1.1,0.4,1.7
			c-0.2,0.9-0.6,1.5-0.6,1.8s1.6,0.3,2.6,0c1-0.5,1.9-1.1,2.8-1.8c0.2,0.3,0.2,0.7,0.1,1.1c-0.3,0.8-1,1.4-1.2,2
			c-0.6,1.2-1.3,2.4-2,3.5L336.1,356.8z"/>
		<path class="st77" d="M308.9,347l2.9-2.8c0.4-0.4,0.8-0.7,1.3-0.9c0.5-0.2,1-0.5,1.4-0.8c0.7-0.6,1-2,1.3-2.5s1.9-2,2.1-2.4
			s0.2-1-0.3-1c-1.1,0.4-2.2,1-3.2,1.7l1.3-2c0,0-2.1,0.9-3.5,1.6s-1.7,2.5-2.2,3s-4,3.2-4,3.2L308.9,347z"/>
		<path class="st87" d="M314.7,318.2c0,0,0.9,3.4-1.4,5.6s-1.3-4.7-1.3-4.7L314.7,318.2z"/>
		<path class="st77" d="M300.6,343.7l8-0.9l1.2,0.4c-0.4-2.1-0.4-4.3-0.2-6.4c1.2-0.5,2.3-1.1,3.3-1.8c1.6-1.2,1.5-6.6,1.3-9.4
			s-0.4-6.1-0.4-6.1c-0.8-0.9-8,0-10.4,1.6s-2.2,11.3-2.1,13.1s0,6.1,0,6.1L300.6,343.7z"/>
		<path class="st10" d="M295.9,365.2c0.1,3.5-0.7,6.9-2.2,10c4.2,2.9,9,4.8,14.1,5.4c3.6,0.6,7.2,0,10.4-1.7c0,0-1-5-1.4-9.2
			c-0.1-1.2-0.2-2.4-0.2-3.6c0.1-1.6,0.5-4.7,0.9-7.8c0.5-4.3,1-8.9,0.4-10.6c-1-2.9-8.2-7.5-8.2-7.5s-8.7,0.6-8.5-1.9
			c0,0-4.7-0.7-6.9,0.3s-2.5,6.9-1.9,11.9S295.5,360.2,295.9,365.2z"/>
		
			<linearGradient id="SVGID_70_" gradientUnits="userSpaceOnUse" x1="309.71" y1="138.2298" x2="317.45" y2="138.2298" gradientTransform="matrix(1 0 0 -1 0 499.8898)">
			<stop  offset="0" style="stop-color:#00A7E5"/>
			<stop  offset="0.36" style="stop-color:#02B3ED;stop-opacity:0.66"/>
			<stop  offset="1" style="stop-color:#06C9FD;stop-opacity:0"/>
		</linearGradient>
		<path class="st88" d="M309.7,353.5c0.8,4,1.9,7.9,3.2,11.8c0.6,0,1.2,0,1.8,0l2.1,4.5c-0.1-1.2-0.2-2.4-0.2-3.6
			c0.1-1.6,0.5-4.7,0.9-7.8l-0.3-1.1L309.7,353.5z"/>
		<path class="st77" d="M341.6,359.6c-0.5,0.4-1.1,0.7-1.8,0.8h-0.2c-1.1,0.1-1.3,0-2.3,0.1s-11.1,9.3-12.6,10.7l-0.2,0.2l0,0
			l-0.3,0.2c-2.9,2-3.8,1-5.4-1.4c-0.5-0.7-1.1-1.9-1.9-3.2l-0.4-0.8l-0.1-0.1l0,0c-0.4-0.7-0.8-1.4-1.1-2.1
			c-0.7-1.4-1.2-2.5-1.2-2.5c1-0.3,2-0.6,3-1c2.1-0.8,4.6-1.7,4.6-1.7c0.1,0.2,0.3,0.7,0.5,1.4c0.5,1.3,1.1,3.1,1.3,3.5
			c3.7-2.1,10.7-5.9,11.8-6.5c0.3-0.1,0.5-0.4,0.9-0.6c1-0.7,2.1-1.6,2.8-2c0.4,1.4,1,2.8,1.9,4
			C341.3,359.2,341.6,359.6,341.6,359.6z"/>
		<path class="st10" d="M317.9,347.9l4.8,11.9c0,0-4.1,4.2-8.5,4.2c0,0-4.6-8.7-4.9-12.7L317.9,347.9z"/>
		<path class="st10" d="M301.2,337l-0.4,1.4c0.1,1,0.7,1.8,1.6,2.1c2.7,1.1,6.8,0.5,7.8,0.2l-0.6-1.9
			C309.6,338.8,304,339.6,301.2,337z"/>
		<path class="st87" d="M304.5,332.9c0,0,2.9,4.5,0.4,8.6s-8.9,2-8.9-2.1c0-5.4,3.4-7,3.4-7L304.5,332.9z"/>
		<path class="st87" d="M295.9,322.2c0.7-5.2,4.6-9.6,13.3-8.1c1.8,0.3,5.9,1.9,5.4,5.2c-0.1,0.5-0.2,1-0.5,1.4
			c0.5,1.8,0.6,5.3-5.1,8.1c0.1,1-0.5,1.2-0.8,2.9c-0.4,2.8-3,4.5-6.5,4C299,335.2,294.6,331.5,295.9,322.2z"/>
		<path class="st9" d="M305,462c0.1,1.4,1.5,4.1,1.7,5s0.7,7.1,0.7,7.1h1l0.2-7l0,0c0.1,0.3,0.8,2.3,1.1,3.5s3.4,2.4,4.4,2.3
			s5.5-3.1,6.6-4.9s-4.8-1-4.8-1s1.6,0.8,1,1.6s-2.2,0.4-3.3-1c-1.3-1.7-3.4-11.3-7.1-8.8C306.6,459,304.8,460.3,305,462z"/>
		
			<linearGradient id="SVGID_71_" gradientUnits="userSpaceOnUse" x1="308.74" y1="30.1436" x2="314.28" y2="30.1436" gradientTransform="matrix(1 0 0 -1 0 499.8898)">
			<stop  offset="0" style="stop-color:#170960"/>
			<stop  offset="1" style="stop-color:#24188B"/>
		</linearGradient>
		<path class="st89" d="M308.7,467.2L308.7,467.2c0.1,0.3,0.8,2.3,1.1,3.5s3.4,2.4,4.4,2.3c-0.5-0.1-1.2-1.2-2.1-3
			c-1.5-2.8-2.4-3.9-2.8-3.7C309,466.6,308.8,466.9,308.7,467.2z"/>
		<path class="st9" d="M294.1,457.6c0.1,1.4,1.5,4.1,1.7,5s0.7,7.1,0.7,7.1h1l0.2-7l0,0c0.1,0.2,0.8,2.3,1.1,3.5s3.4,2.4,4.4,2.3
			s5.5-3.1,6.6-4.9s-4.8-1-4.8-1s1.6,0.8,1,1.6s-2.2,0.4-3.3-1c-1.3-1.7-3.4-11.2-7.1-8.8C295.7,454.6,293.9,455.9,294.1,457.6z"/>
		
			<linearGradient id="SVGID_72_" gradientUnits="userSpaceOnUse" x1="297.85" y1="34.6046" x2="303.39" y2="34.6046" gradientTransform="matrix(1 0 0 -1 0 499.8898)">
			<stop  offset="0" style="stop-color:#170960"/>
			<stop  offset="1" style="stop-color:#24188B"/>
		</linearGradient>
		<path class="st90" d="M297.9,462.8L297.9,462.8c0.1,0.2,0.8,2.3,1.1,3.5s3.4,2.4,4.4,2.3c-0.5-0.1-1.2-1.2-2.1-3
			c-1.5-2.8-2.4-3.9-2.8-3.7C298.1,462.1,297.9,462.4,297.9,462.8z"/>
		
			<linearGradient id="SVGID_73_" gradientUnits="userSpaceOnUse" x1="251.5432" y1="446.8093" x2="258.3132" y2="437.1292" gradientTransform="matrix(1 5.000000e-02 0 -1 0 479.0598)">
			<stop  offset="0" style="stop-color:#00FFFF"/>
			<stop  offset="1" style="stop-color:#00FFFF"/>
		</linearGradient>
		<path class="st91" d="M258.9,49.9v5.4c0,0.2-0.2,0.3-0.3,0.3c-0.1,0-0.1,0-0.2-0.1l-6.3-3.9c-0.2-0.2-0.4-0.4-0.4-0.7v-5.6
			c0-0.2,0.2-0.4,0.4-0.4c0.1,0,0.1,0,0.2,0.1l6,3.8C258.6,49.1,258.9,49.5,258.9,49.9z"/>
		
			<linearGradient id="SVGID_74_" gradientUnits="userSpaceOnUse" x1="538.9399" y1="275.9076" x2="546.5199" y2="265.0576" gradientTransform="matrix(1 5.000000e-02 0 -1 0 479.0598)">
			<stop  offset="0" style="stop-color:#00FFFF"/>
			<stop  offset="1" style="stop-color:#00FFFF"/>
		</linearGradient>
		<path class="st92" d="M547.4,236.2v6c0,0.2-0.2,0.4-0.4,0.4c-0.1,0-0.1,0-0.2-0.1l-7-4.4c-0.3-0.2-0.4-0.5-0.5-0.8v-6.2
			c0-0.2,0.2-0.4,0.4-0.4c0.1,0,0.2,0,0.2,0.1l6.7,4.2C547.2,235.3,547.4,235.8,547.4,236.2z"/>
		
			<linearGradient id="SVGID_75_" gradientUnits="userSpaceOnUse" x1="502.9703" y1="288.2919" x2="508.9003" y2="279.8019" gradientTransform="matrix(1 5.000000e-02 0 -1 0 479.0598)">
			<stop  offset="0" style="stop-color:#00FFFF"/>
			<stop  offset="1" style="stop-color:#00FFFF"/>
		</linearGradient>
		<path class="st93" d="M509.7,220.9v4.7c0,0.2-0.1,0.3-0.3,0.3c-0.1,0-0.1,0-0.2-0.1l-5.5-3.4c-0.2-0.1-0.3-0.4-0.4-0.6v-4.9
			c0-0.2,0.1-0.3,0.3-0.3c0.1,0,0.1,0,0.2,0.1l5.3,3.3C509.5,220.1,509.7,220.5,509.7,220.9z"/>
		
			<linearGradient id="SVGID_76_" gradientUnits="userSpaceOnUse" x1="356.025" y1="424.677" x2="361.955" y2="416.187" gradientTransform="matrix(1 5.000000e-02 0 -1 0 479.0598)">
			<stop  offset="0" style="stop-color:#00FFFF"/>
			<stop  offset="1" style="stop-color:#00FFFF"/>
		</linearGradient>
		<path class="st94" d="M362.6,76.9v4.7c0,0.2-0.1,0.3-0.3,0.3c-0.1,0-0.1,0-0.2,0l-5.5-3.5c-0.2-0.1-0.4-0.4-0.4-0.6v-4.9
			c0-0.2,0.1-0.3,0.3-0.3c0.1,0,0.1,0,0.2,0.1l5.3,3.3C362.4,76.1,362.6,76.5,362.6,76.9z"/>
		
			<linearGradient id="SVGID_77_" gradientUnits="userSpaceOnUse" x1="557.3968" y1="200.5775" x2="563.3268" y2="192.0875" gradientTransform="matrix(1 5.000000e-02 0 -1 0 479.0598)">
			<stop  offset="0" style="stop-color:#00FFFF"/>
			<stop  offset="1" style="stop-color:#00FFFF"/>
		</linearGradient>
		<path class="st95" d="M564.2,311.4v4.7c0,0.2-0.1,0.3-0.3,0.3c-0.1,0-0.1,0-0.2-0.1l-5.5-3.5c-0.2-0.1-0.3-0.4-0.3-0.6v-4.9
			c0-0.2,0.1-0.3,0.3-0.3c0.1,0,0.1,0,0.2,0.1l5.3,3.3C564,310.6,564.2,311,564.2,311.4z"/>
		
			<linearGradient id="SVGID_78_" gradientUnits="userSpaceOnUse" x1="514.108" y1="87.6534" x2="520.038" y2="79.1634" gradientTransform="matrix(1 5.000000e-02 0 -1 0 479.0598)">
			<stop  offset="0" style="stop-color:#00FFFF"/>
			<stop  offset="1" style="stop-color:#00FFFF"/>
		</linearGradient>
		<path class="st96" d="M520.9,422.1v4.7c0,0.2-0.1,0.3-0.3,0.3c-0.1,0-0.1,0-0.2-0.1l-5.5-3.5c-0.2-0.1-0.4-0.4-0.3-0.6v-4.9
			c0-0.2,0.1-0.3,0.3-0.3c0.1,0,0.1,0,0.2,0.1l5.3,3.3C520.7,421.3,520.9,421.7,520.9,422.1z"/>
		
			<linearGradient id="SVGID_79_" gradientUnits="userSpaceOnUse" x1="82.2059" y1="323.854" x2="88.1459" y2="315.364" gradientTransform="matrix(1 5.000000e-02 0 -1 0 479.0598)">
			<stop  offset="0" style="stop-color:#00FFFF"/>
			<stop  offset="1" style="stop-color:#00FFFF"/>
		</linearGradient>
		<path class="st97" d="M88.5,163.6v4.7c0,0.2-0.1,0.3-0.3,0.3c-0.1,0-0.1,0-0.2-0.1l-5.5-3.4c-0.2-0.1-0.3-0.4-0.3-0.6v-4.9
			c0-0.2,0.1-0.3,0.3-0.3c0.1,0,0.1,0,0.2,0.1l5.3,3.3C88.3,162.8,88.5,163.2,88.5,163.6z"/>
		
			<linearGradient id="SVGID_80_" gradientUnits="userSpaceOnUse" x1="130.2419" y1="425.1694" x2="139.2219" y2="412.3094" gradientTransform="matrix(1 5.000000e-02 0 -1 0 479.0598)">
			<stop  offset="0" style="stop-color:#00FFFF"/>
			<stop  offset="1" style="stop-color:#00FFFF"/>
		</linearGradient>
		<path class="st98" d="M139.8,66.8V74c0,0.2-0.2,0.4-0.4,0.5c-0.1,0-0.2,0-0.3-0.1l-8.3-5.2c-0.3-0.2-0.6-0.6-0.5-1v-7.4
			c0-0.3,0.2-0.5,0.5-0.5c0.1,0,0.2,0,0.3,0.1l8,5C139.5,65.7,139.8,66.2,139.8,66.8z"/>
		
			<linearGradient id="SVGID_81_" gradientUnits="userSpaceOnUse" x1="273.9284" y1="439.669" x2="282.9184" y2="426.809" gradientTransform="matrix(1 5.000000e-02 0 -1 0 479.0598)">
			<stop  offset="0" style="stop-color:#00FFFF"/>
			<stop  offset="1" style="stop-color:#00FFFF"/>
		</linearGradient>
		<path class="st99" d="M283.6,59.8v7.1c0,0.2-0.2,0.5-0.4,0.5c-0.1,0-0.2,0-0.3-0.1l-8.3-5.3c-0.3-0.2-0.5-0.6-0.5-1v-7.3
			c0-0.3,0.2-0.5,0.5-0.5c0.1,0,0.2,0,0.3,0.1l8,5C283.3,58.6,283.6,59.2,283.6,59.8z"/>
		
			<linearGradient id="SVGID_82_" gradientUnits="userSpaceOnUse" x1="439.6117" y1="403.3316" x2="445.3918" y2="395.0616" gradientTransform="matrix(1 5.000000e-02 0 -1 0 479.0598)">
			<stop  offset="0" style="stop-color:#00FFFF"/>
			<stop  offset="1" style="stop-color:#00FFFF"/>
		</linearGradient>
		<path class="st100" d="M446.1,102.4v4.6c0,0.2-0.1,0.3-0.3,0.3c-0.1,0-0.1,0-0.2,0l-5.4-3.4c-0.2-0.1-0.3-0.4-0.4-0.6v-4.7
			c0-0.2,0.1-0.3,0.3-0.3c0.1,0,0.1,0,0.2,0.1l5.1,3.2C445.9,101.7,446.1,102.1,446.1,102.4z"/>
		
			<linearGradient id="SVGID_83_" gradientUnits="userSpaceOnUse" x1="532.7339" y1="314.7362" x2="538.5139" y2="306.4662" gradientTransform="matrix(1 5.000000e-02 0 -1 0 479.0598)">
			<stop  offset="0" style="stop-color:#00FFFF"/>
			<stop  offset="1" style="stop-color:#00FFFF"/>
		</linearGradient>
		<path class="st101" d="M539.3,195.8v4.6c0,0.2-0.1,0.3-0.3,0.3c-0.1,0-0.1,0-0.2-0.1l-5.3-3.4c-0.2-0.1-0.3-0.4-0.3-0.6v-4.7
			c0-0.2,0.1-0.3,0.3-0.3c0.1,0,0.1,0,0.2,0.1l5.1,3.2C539.1,195.1,539.3,195.5,539.3,195.8z"/>
		
			<linearGradient id="SVGID_84_" gradientUnits="userSpaceOnUse" x1="478.5073" y1="324.4733" x2="482.2073" y2="319.1833" gradientTransform="matrix(1 5.000000e-02 0 -1 0 479.0598)">
			<stop  offset="0" style="stop-color:#00FFFF"/>
			<stop  offset="1" style="stop-color:#00FFFF"/>
		</linearGradient>
		<path class="st102" d="M482.9,181.9v2.9c0,0.1-0.1,0.2-0.2,0.2c0,0-0.1,0-0.1,0l-3.4-2.1c-0.1-0.1-0.2-0.2-0.2-0.4v-3
			c0-0.1,0.1-0.2,0.2-0.2c0,0,0.1,0,0.1,0l3.3,2.1C482.8,181.4,482.9,181.6,482.9,181.9z"/>
		
			<linearGradient id="SVGID_85_" gradientUnits="userSpaceOnUse" x1="401.6305" y1="384.0893" x2="405.3205" y2="378.7993" gradientTransform="matrix(1 5.000000e-02 0 -1 0 479.0598)">
			<stop  offset="0" style="stop-color:#00FFFF"/>
			<stop  offset="1" style="stop-color:#00FFFF"/>
		</linearGradient>
		<path class="st103" d="M405.9,118.3v2.9c0,0.1-0.1,0.2-0.2,0.2c0,0-0.1,0-0.1,0l-3.4-2.2c-0.1-0.1-0.2-0.2-0.2-0.4v-3
			c0-0.1,0.1-0.2,0.2-0.2c0,0,0.1,0,0.1,0l3.3,2.1C405.8,117.8,405.9,118,405.9,118.3z"/>
		
			<linearGradient id="SVGID_86_" gradientUnits="userSpaceOnUse" x1="131.3054" y1="245.9617" x2="135.0054" y2="240.6717" gradientTransform="matrix(1 5.000000e-02 0 -1 0 479.0598)">
			<stop  offset="0" style="stop-color:#00FFFF"/>
			<stop  offset="1" style="stop-color:#00FFFF"/>
		</linearGradient>
		<path class="st104" d="M135.3,242.4v2.9c0,0.1-0.1,0.2-0.2,0.2c0,0-0.1,0-0.1,0l-3.4-2.2c-0.1-0.1-0.2-0.2-0.2-0.4v-3
			c0-0.1,0.1-0.2,0.2-0.2c0,0,0.1,0,0.1,0l3.3,2.1C135.2,242,135.3,242.2,135.3,242.4z"/>
		
			<linearGradient id="SVGID_87_" gradientUnits="userSpaceOnUse" x1="218.3654" y1="408.8262" x2="191.1754" y2="431.8662" gradientTransform="matrix(1 0 0 -1 0 499.8898)">
			<stop  offset="0" style="stop-color:#004CFF"/>
			<stop  offset="0.78" style="stop-color:#0029B1"/>
			<stop  offset="1" style="stop-color:#001E9A"/>
		</linearGradient>
		<path class="st105" d="M210.4,80.9l-6-3.7v-2.8c0-0.5-0.6-1.2-1-1.2l-7.1,0.4c-0.4,0-0.4,0.6,0,1.1l7.1,9.2c0.4,0.6,1,0.6,1,0.1
			V81l6,3.7c0.4,0.2,0.7,0.1,0.7-0.2V82C211,81.5,210.8,81.1,210.4,80.9z"/>
		<path class="st9" d="M216.6,88.7l6,3.8v2.8c0,0.5,0.6,1.2,1,1.2l7-0.3c0.4,0,0.4-0.6,0-1.1l-7-9.2c-0.4-0.6-1-0.6-1-0.1v2.8
			l-6-3.8c-0.4-0.2-0.7-0.1-0.7,0.3v2.5C216,88,216.3,88.4,216.6,88.7z"/>
		<path class="st9" d="M251.5,107.5l-7.1-10.8c-0.3-0.5-0.9-0.8-1.2-0.7l-7.1,1.9c-0.3,0.1-0.1,0.7,0.3,0.9l1.8,1.1v6.9
			c0.1,0.7,0.5,1.4,1.1,1.8l2.3,1.4c0.3,0.2,0.6,0.1,0.6-0.2v-3.4c0-0.3,0.2-0.4,0.5-0.2l2.2,1.3c0.3,0.2,0.5,0.5,0.5,0.9v3.4
			c0,0.4,0.2,0.7,0.6,0.9l2.3,1.4c0.6,0.4,1.1,0.2,1.1-0.4v-6.9l1.8,1.1C251.6,108.3,251.8,107.9,251.5,107.5z"/>
	</g>
</g>
</svg>
