<svg id="圖層_1" data-name="圖層 1" xmlns="http://www.w3.org/2000/svg" viewBox="0 0 68 57"><title>camera_i</title><path d="M79.68,36h-14L64,28.66A3.07,3.07,0,0,0,61.23,26h-20a3.07,3.07,0,0,0-2.75,2.66L36.83,36H32.75l-.26-1.11a1,1,0,0,0-.91-.89H24.92a1,1,0,0,0-.91.89L23.75,36h-.93a5.57,5.57,0,0,0-5.57,5.57V77.43A5.57,5.57,0,0,0,22.82,83H79.68a5.57,5.57,0,0,0,5.57-5.57V41.57A5.57,5.57,0,0,0,79.68,36ZM51.63,77.13A18.38,18.38,0,1,1,70,58.75,18.38,18.38,0,0,1,51.63,77.13ZM73.5,45A1.5,1.5,0,1,1,75,43.5,1.5,1.5,0,0,1,73.5,45Z" transform="translate(-17.25 -26)"/><circle cx="34.38" cy="32.75" r="15.55"/></svg>