<?xml version="1.0" encoding="utf-8"?>
<!-- Generator: Adobe Illustrator 23.0.3, SVG Export Plug-In . SVG Version: 6.00 Build 0)  -->
<svg version="1.1" id="Capa_1" xmlns="http://www.w3.org/2000/svg" xmlns:xlink="http://www.w3.org/1999/xlink" x="0px" y="0px"
	 viewBox="0 0 512 512" style="enable-background:new 0 0 512 512;" xml:space="preserve">
<style type="text/css">
	.st0{fill:#FFFFFF;}
</style>
<g>
	<g>
		<path class="st0" d="M435.2,22H76.8C46.6,22,22,46.6,22,76.8v358.3c0,30.3,24.6,54.8,54.8,54.8h358.3c30.3,0,54.8-24.6,54.8-54.8
			V76.8C490,46.6,465.4,22,435.2,22z M432.4,423.6c0,9.4-7.4,17-16.3,17H323V302h50.4l8.3-52.7h-58.8v-36.6
			c0-14.4,10.6-25.5,24.5-25.5h33.5v-52.7h-33.5c-41.5,0-75.2,35.2-75.2,78.4v36.4h-49V302h49v138.7H95.9c-9,0-16.3-7.6-16.3-17
			V90.2c0-9.4,7.4-17,16.3-17H416c9,0,16.3,7.6,16.3,17L432.4,423.6L432.4,423.6L432.4,423.6z"/>
	</g>
</g>
</svg>
