<?xml version="1.0" encoding="utf-8"?>
<!-- Generator: Adobe Illustrator 23.0.3, SVG Export Plug-In . SVG Version: 6.00 Build 0)  -->
<svg version="1.1" id="Layer_1" xmlns="http://www.w3.org/2000/svg" xmlns:xlink="http://www.w3.org/1999/xlink" x="0px" y="0px"
	 viewBox="0 0 2500 2500" style="enable-background:new 0 0 2500 2500;" xml:space="preserve">
<style type="text/css">
	.st0{fill:#F0533F;}
	.st1{fill:#6D6E6E;}
</style>
<g>
	<path class="st0" d="M1530.34,1696.35c-12.97,0-25.4-6.71-32.38-18.34l-285.53-476.17L679,1346.89
		c-17.02,4.64-34.96-3.14-43.24-18.71L12.2,155.16c-5.8-10.91-5.89-23.97-0.25-34.96c5.64-10.99,16.31-18.53,28.55-20.18
		l529.89-71.3c14.94-2.01,29.65,5.07,37.41,18l639.98,1067.25l743.29-202.12l-248.24-349.91c-7.27-10.24-8.96-23.43-4.53-35.17
		c4.43-11.75,14.42-20.53,26.64-23.41l347.78-82.14c14.19-3.36,29.02,1.77,38.14,13.14l300.94,375.74
		c7.95,9.93,10.36,23.2,6.42,35.29c-3.94,12.1-13.71,21.39-25.99,24.73l-317.03,86.21l276.4,389.6c6.86,9.67,8.78,22.01,5.19,33.3
		c-3.6,11.3-12.3,20.25-23.49,24.17l-830.48,290.81C1538.71,1695.66,1534.5,1696.35,1530.34,1696.35z M1288.11,1181.25
		l258.78,431.55l754.12-264.07L2037.6,977.44L1288.11,1181.25z M104.33,167.62l583.95,1098.5l483.81-131.56L555.83,106.87
		L104.33,167.62z M1836.82,563.96l231.85,326.8l288.21-78.38l-250.05-312.2L1836.82,563.96z"/>
</g>
<g>
	<path class="st1" d="M564.41,1836.66h31.56v339.95h-31.56V1836.66z"/>
	<path class="st1" d="M905.93,1931.34v245.27h-31.11v-42.16c-13.23,16.08-28.07,28.18-44.52,36.3s-34.45,12.17-53.99,12.17
		c-34.72,0-64.36-12.59-88.93-37.76c-24.57-25.17-36.86-55.79-36.86-91.86c0-35.31,12.4-65.52,37.2-90.62
		c24.8-25.1,54.63-37.65,89.49-37.65c20.14,0,38.36,4.28,54.67,12.85c16.31,8.57,30.62,21.42,42.94,38.55v-45.09H905.93z
		 M779.81,1955.46c-17.56,0-33.78,4.32-48.64,12.95c-14.86,8.63-26.68,20.76-35.46,36.37c-8.78,15.61-13.17,32.12-13.17,49.53
		c0,17.27,4.43,33.78,13.29,49.54c8.85,15.76,20.75,28.04,35.69,36.82c14.94,8.78,30.96,13.17,48.08,13.17
		c17.26,0,33.63-4.35,49.09-13.06c15.46-8.71,27.35-20.49,35.69-35.35c8.33-14.86,12.5-31.6,12.5-50.21
		c0-28.37-9.35-52.09-28.04-71.15C830.13,1965,807.13,1955.46,779.81,1955.46z"/>
	<path class="st1" d="M965,1931.34h32.24v35.84c9.62-14.12,19.76-24.68,30.43-31.67c10.67-6.99,21.79-10.48,33.36-10.48
		c8.72,0,18.03,2.78,27.95,8.34l-16.46,26.6c-6.61-2.85-12.17-4.28-16.68-4.28c-10.52,0-20.66,4.32-30.43,12.96
		c-9.77,8.65-17.21,22.06-22.32,40.24c-3.91,13.98-5.86,42.23-5.86,84.76v82.96H965V1931.34z"/>
	<path class="st1" d="M1360.17,1931.34v245.27h-31.11v-42.16c-13.23,16.08-28.07,28.18-44.52,36.3
		c-16.46,8.12-34.45,12.17-53.99,12.17c-34.72,0-64.36-12.59-88.93-37.76c-24.57-25.17-36.86-55.79-36.86-91.86
		c0-35.31,12.4-65.52,37.2-90.62c24.8-25.1,54.63-37.65,89.49-37.65c20.14,0,38.36,4.28,54.67,12.85
		c16.31,8.57,30.62,21.42,42.94,38.55v-45.09H1360.17z M1234.04,1955.46c-17.56,0-33.78,4.32-48.64,12.95
		c-14.86,8.63-26.68,20.76-35.46,36.37c-8.78,15.61-13.17,32.12-13.17,49.53c0,17.27,4.43,33.78,13.29,49.54
		c8.85,15.76,20.75,28.04,35.69,36.82c14.94,8.78,30.96,13.17,48.08,13.17c17.26,0,33.63-4.35,49.09-13.06
		c15.46-8.71,27.35-20.49,35.69-35.35c8.33-14.86,12.5-31.6,12.5-50.21c0-28.37-9.35-52.09-28.04-71.15
		S1261.36,1955.46,1234.04,1955.46z"/>
	<path class="st1" d="M1407.96,1931.34h33.59l82.33,178.79l81.33-178.79h33.81l-112.26,245.27h-5.86L1407.96,1931.34z"/>
	<path class="st1" d="M1893.53,2095.23l26.6,13.98c-8.72,17.13-18.8,30.96-30.24,41.48c-11.43,10.52-24.29,18.53-38.58,24.01
		c-14.3,5.49-30.47,8.23-48.52,8.23c-40.01,0-71.3-13.11-93.86-39.34c-22.57-26.22-33.84-55.87-33.84-88.93
		c0-31.11,9.55-58.84,28.65-83.18c24.22-30.96,56.63-46.44,97.25-46.44c41.82,0,75.21,15.86,100.18,47.57
		c17.75,22.4,26.77,50.35,27.07,83.86h-220.69c0.6,28.49,9.7,51.84,27.31,70.06s39.35,27.33,65.23,27.33
		c12.49,0,24.63-2.17,36.45-6.51c11.8-4.34,21.85-10.11,30.12-17.29C1874.95,2122.85,1883.9,2111.25,1893.53,2095.23z
		 M1893.53,2029.18c-4.22-16.83-10.35-30.28-18.39-40.35c-8.06-10.07-18.7-18.18-31.94-24.35c-13.25-6.16-27.16-9.24-41.76-9.24
		c-24.08,0-44.77,7.74-62.07,23.22c-12.65,11.27-22.2,28.18-28.67,50.72H1893.53z"/>
	<path class="st1" d="M1982.35,1836.66h31.56v339.95h-31.56V1836.66z"/>
</g>
</svg>
