<?xml version="1.0" encoding="utf-8"?>
<!-- Generator: Adobe Illustrator 23.0.3, SVG Export Plug-In . SVG Version: 6.00 Build 0)  -->
<svg version="1.1" id="圖層_1" xmlns="http://www.w3.org/2000/svg" xmlns:xlink="http://www.w3.org/1999/xlink" x="0px" y="0px"
	 viewBox="0 0 100 100" style="enable-background:new 0 0 100 100;" xml:space="preserve">
<style type="text/css">
	.st0{fill:#FFFFFF;}
</style>
<path class="st0" d="M11.9,0C5.4,0,0,5.4,0,11.9v76.2C0,94.6,5.4,100,11.9,100h76.2c6.5,0,11.9-5.4,11.9-11.9V11.9
	C100,5.4,94.6,0,88.1,0H11.9z M14.3,7.6h71.4c3.7,0,6.7,3,6.7,6.7v71.4c0,3.7-3,6.7-6.7,6.7H14.3c-3.7,0-6.7-3-6.7-6.7V14.3
	C7.6,10.5,10.5,7.6,14.3,7.6z M50,14.3c-20.7,0-38.1,13.5-38.1,30.8c0,15.4,13.8,28,31.8,30.4l0,0c0.5,0.1,1,0.3,1.3,0.4
	c-0.4-0.1,0.1,0,0.1,0.1c0,0.2,0.1,1.1,0,1.8c0,0.1-0.4,2.4-0.5,2.9l0,0c-1.2,3.5-2.7,3.8-1.6,5.4c0.5,0.8,1.6,0.8,4.7,0.3
	c2-0.5,2-0.7,3.3-1.2c2.5-1,7.4-3.9,13.1-7.8s11.8-8.6,15.8-13.1c5.5-5.9,8.3-12.2,8.3-19.1C88.1,27.8,70.7,14.3,50,14.3z M50,21.8
	c17,0,30.3,10.9,30.3,23.8c0,5.1-1.9,9.6-6.4,14.5l0,0l0,0c-3.2,3.5-8.6,7.8-13.7,11.3c-4.9,3.4-9.5,5.9-10.8,6.6
	c0.2-0.8,0.4-1.9,0.4-1.9l0,0l0,0c0.1-0.9,0.5-2.3-0.3-4l0,0l0,0c-0.5-1.3-1.5-1.8-2.3-2.2c-0.8-0.4-1.5-0.5-2.2-0.7H45h-0.1
	c-14.7-1.9-25.3-11.9-25.3-23.4C19.7,32.7,33,21.8,50,21.8z M47.6,35.7c-1.2,0-2.4,0.9-2.4,2.4v14.3c0,1.3,1.1,2.4,2.4,2.4
	c1.3,0,2.4-1.1,2.4-2.4v-6.9l5.2,8.2c1.3,1.9,4.3,0.9,4.3-1.4V38.1c0-1.3-1.1-2.4-2.4-2.4s-2.4,1.1-2.4,2.4v7.1l-5.2-8.5
	C49.1,36,48.3,35.7,47.6,35.7z M26.2,35.7c-1.3,0-2.4,1.1-2.4,2.4v14.3c0,1.3,1.1,2.4,2.4,2.4h7.1c1.3,0,2.4-1.1,2.4-2.4
	c0-1.3-1.1-2.4-2.4-2.4h-4.8V38.1C28.6,36.8,27.5,35.7,26.2,35.7z M40.5,35.7c-1.3,0-2.4,1.1-2.4,2.4v14.3c0,1.3,1.1,2.4,2.4,2.4
	c1.3,0,2.4-1.1,2.4-2.4V38.1C42.9,36.8,41.8,35.7,40.5,35.7z M64.3,35.7c-1.3,0-2.4,1.1-2.4,2.4v14.3c0,1.3,1.1,2.4,2.4,2.4h7.1
	c1.3,0,2.4-1.1,2.4-2.4c0-1.3-1.1-2.4-2.4-2.4h-4.8v-2.4h4.8c1.3,0,2.4-1.1,2.4-2.4s-1.1-2.4-2.4-2.4h-4.8v-2.4h4.8
	c1.3,0,2.4-1.1,2.4-2.4s-1.1-2.4-2.4-2.4h-7.1V35.7z"/>
</svg>
