<?xml version="1.0" encoding="utf-8"?>
<!-- Generator: Adobe Illustrator 23.0.3, SVG Export Plug-In . SVG Version: 6.00 Build 0)  -->
<svg version="1.1" id="圖層_1" xmlns="http://www.w3.org/2000/svg" xmlns:xlink="http://www.w3.org/1999/xlink" x="0px" y="0px"
	 viewBox="0 0 300 200" style="enable-background:new 0 0 300 200;" xml:space="preserve">
<style type="text/css">
	.st0{fill:#C8C9CA;}
</style>
<g>
	<polygon class="st0" points="175.82,154 159.39,137.63 143.01,154 	"/>
	<g>
		<polyline class="st0" points="297.72,115.07 227.39,115.07 205.12,137.63 275.46,137.63 297.72,115.07 297.15,115.07 		"/>
	</g>
	<path class="st0" d="M251.42,45.6l-18.19,18.19l-73.83,73.83L79.63,58.13C71.39,50.36,60.29,45.6,48.07,45.6
		c-25.41,0-46.01,20.6-46.01,46.01s20.6,46.01,46.01,46.01c19.06,0,33.8-10.27,40.79-26.79L70.28,91.61
		c0,12.26-9.94,22.19-22.19,22.19S25.9,103.87,25.9,91.61s9.94-22.19,22.19-22.19c0,0,7.07-1.24,14.66,6.23l3.97,3.91l58.98,58.07
		l0,0h66.44l41.08-41.08l18.19-18.19V45.6"/>
</g>
</svg>
