<svg id="圖層_1" data-name="圖層 1" xmlns="http://www.w3.org/2000/svg" viewBox="0 0 53.83 75.31"><title>pen_i</title><path d="M69.37,47.38c1.22-3.4,2.47-6.52,3.7-9.33L57.85,29.4,42.64,20.75c-1.79,2.48-3.83,5.16-6.12,7.94s-4.64,5.39-6.74,7.59q-.55,8.78-1.28,17.84-1.26,15.62-2.89,30.57l24.22-42.6c-1-.57-1.16-2.2-.34-3.64a3.2,3.2,0,0,1,3.91-1.23,3.21,3.21,0,0,1,1,4c-.82,1.44-2.31,2.15-3.31,1.57L26.82,85.38q12-9,24.8-18.11Q59,62,66.29,57.05C67.11,54.12,68.12,50.88,69.37,47.38Z" transform="translate(-25.61 -10.07)"/><rect x="43.31" y="18.31" width="36" height="10" transform="translate(-6.06 -37.33) rotate(29.63)"/></svg>