<svg id="圖層_1" data-name="圖層 1" xmlns="http://www.w3.org/2000/svg" viewBox="0 0 43 531.15"><defs><style>.cls-1{fill:#fff;}</style></defs><title>scroll</title><polyline class="cls-1" points="0 0 0 531.15 34.15 358.64 17.08 358.64 17.08 0"/><path class="cls-1" d="M115.21,113.2q0-6.48,2.36-9.68a7.72,7.72,0,0,1,6.08-3.37v3.91a5,5,0,0,0-4.13,2.85,13,13,0,0,0-1.34,6.12,11.39,11.39,0,0,0,1.14,5.48,3.47,3.47,0,0,0,3.1,2.08,3.12,3.12,0,0,0,3-2.15,36,36,0,0,0,1.85-7.4q.92-5.25,2.53-7.54a5,5,0,0,1,4.3-2.28,5.76,5.76,0,0,1,5,3,14.3,14.3,0,0,1,1.94,7.9,15.71,15.71,0,0,1-2,8.35,6.58,6.58,0,0,1-5.53,3.36v-3.94q4.53-.61,4.53-7.6a10.88,10.88,0,0,0-1-5.24,3.1,3.1,0,0,0-2.75-1.86,2.51,2.51,0,0,0-2.35,1.49,22.21,22.21,0,0,0-1.52,5.58,64.77,64.77,0,0,1-1.44,6.48,10.88,10.88,0,0,1-2.22,4.11,5.12,5.12,0,0,1-4,1.71,6.3,6.3,0,0,1-5.35-3.14A14.33,14.33,0,0,1,115.21,113.2Z" transform="translate(-98 -74)"/><path class="cls-1" d="M115.21,138.62a11.06,11.06,0,0,1,2.47-7.55,10,10,0,0,1,13.94,0,11.06,11.06,0,0,1,2.47,7.55,11.34,11.34,0,0,1-1.5,6.06,5.88,5.88,0,0,1-4.32,2.87V143.5a2.9,2.9,0,0,0,2.47-1.49,6.42,6.42,0,0,0,.85-3.39,6.21,6.21,0,0,0-1.74-4.57,8.57,8.57,0,0,0-10.38,0,6.21,6.21,0,0,0-1.75,4.57,6.51,6.51,0,0,0,.85,3.39A2.89,2.89,0,0,0,121,143.5v4.05a5.92,5.92,0,0,1-4.32-2.87A11.34,11.34,0,0,1,115.21,138.62Z" transform="translate(-98 -74)"/><path class="cls-1" d="M130.76,162.52a11.2,11.2,0,0,0,.2-2.4,6.52,6.52,0,0,0-2.57-5.16H115.63V151h18.05V155h-2.51a7.4,7.4,0,0,1,2.92,5.76,12.92,12.92,0,0,1-.13,1.8Z" transform="translate(-98 -74)"/><path class="cls-1" d="M134.09,174.23a11.07,11.07,0,0,1-2.47,7.56,10,10,0,0,1-13.94,0,12.79,12.79,0,0,1,0-15.11,10,10,0,0,1,13.94,0A11,11,0,0,1,134.09,174.23Zm-16.37,0a6.23,6.23,0,0,0,1.75,4.57,8.57,8.57,0,0,0,10.38,0,6.88,6.88,0,0,0,0-9.15,8.57,8.57,0,0,0-10.38,0A6.24,6.24,0,0,0,117.72,174.23Z" transform="translate(-98 -74)"/><path class="cls-1" d="M115.63,193V189h24.94V193Z" transform="translate(-98 -74)"/><path class="cls-1" d="M115.63,202.71v-3.94h24.94v3.94Z" transform="translate(-98 -74)"/></svg>