<svg xmlns="http://www.w3.org/2000/svg" viewBox="0 0 54 531.15"><defs><style>.cls-1{fill:#fff;}</style></defs><title>swipe</title><g id="喇뒨쏛_1" data-name="喇뒨쏛 1"><polyline class="cls-1" points="0 0 0 531.15 34.15 358.64 17.08 358.64 17.08 0"/></g><g id="喇뒨쏛_3" data-name="喇뒨쏛 3"><path class="cls-1" d="M117.86,102.06q0-7.57,3.13-11.32a10.62,10.62,0,0,1,8-3.94v4.57a6.74,6.74,0,0,0-5.46,3.33,13.75,13.75,0,0,0-1.77,7.16,12,12,0,0,0,1.51,6.41,4.63,4.63,0,0,0,4.1,2.43,4.13,4.13,0,0,0,4-2.51,38.46,38.46,0,0,0,2.45-8.66q1.2-6.14,3.34-8.81a6.94,6.94,0,0,1,5.7-2.67,7.84,7.84,0,0,1,6.57,3.48c1.71,2.31,2.57,5.4,2.57,9.24q0,6-2.59,9.76a8.93,8.93,0,0,1-7.32,3.93v-4.61q6-.7,6-8.89a11.53,11.53,0,0,0-1.37-6.13,4.18,4.18,0,0,0-3.65-2.17A3.38,3.38,0,0,0,140,94.41a23.16,23.16,0,0,0-2,6.52,67,67,0,0,1-1.92,7.58,12.38,12.38,0,0,1-2.93,4.81,7.24,7.24,0,0,1-5.35,2,8.57,8.57,0,0,1-7.07-3.68A15.3,15.3,0,0,1,117.86,102.06Z" transform="translate(-98 -74)"/><path class="cls-1" d="M142.32,153.74,118.42,146v-4.4L136,136l-17.57-5.59V126l23.9-7.81v5.1L124.1,128l18.22,5.84v4.2l-18.22,5.86,18.22,4.76Z" transform="translate(-98 -74)"/><path class="cls-1" d="M146.84,162v-4.61h4.6V162Zm-28.42,0v-4.61h23.9V162Z" transform="translate(-98 -74)"/><path class="cls-1" d="M139.46,173.42a10.34,10.34,0,0,1,.08,15.26q-3.33,2.79-9,2.79-5.88,0-9.29-3.12a10.17,10.17,0,0,1-3.41-7.85,10.64,10.64,0,0,1,2.41-7.08h-11v-4.61h33.08v4.61Zm-15.36,0a9.4,9.4,0,0,0-2.91,6.79,5.62,5.62,0,0,0,2.36,4.74c1.57,1.17,3.9,1.75,7,1.75,2.94,0,5.18-.55,6.7-1.66a5.41,5.41,0,0,0,2.29-4.64q0-3.83-4.1-7Z" transform="translate(-98 -74)"/><path class="cls-1" d="M117.86,207.63a12.76,12.76,0,0,1,3.3-9.18q3.3-3.47,9.2-3.47t9.18,3.36a13.44,13.44,0,0,1,.05,17.63q-3.27,3.3-9.23,3.3h-1v-19.5c-2.77.19-4.82,1-6.15,2.47a7.66,7.66,0,0,0-2,5.39,8.41,8.41,0,0,0,1.14,4.35,3.77,3.77,0,0,0,3.23,2v4.76a7.78,7.78,0,0,1-5.69-3.62A13.52,13.52,0,0,1,117.86,207.63Zm14.82,6.78a8.39,8.39,0,0,0,5.16-2.51,7.5,7.5,0,0,0,0-9.52,8.22,8.22,0,0,0-5.17-2.52Z" transform="translate(-98 -74)"/></g></svg>