<?xml version="1.0" encoding="utf-8"?>
<!-- Generator: Adobe Illustrator 23.0.3, SVG Export Plug-In . SVG Version: 6.00 Build 0)  -->
<svg version="1.1" id="圖層_1" xmlns="http://www.w3.org/2000/svg" xmlns:xlink="http://www.w3.org/1999/xlink" x="0px" y="0px"
	 viewBox="0 0 261.8 226.7" style="enable-background:new 0 0 261.8 226.7;" xml:space="preserve">
<style type="text/css">
	.st0{fill:#41B883;}
	.st1{fill:#34495E;}
	.st2{fill:#6D6D6D;}
</style>
<g transform="matrix(1.3333 0 0 -1.3333 -76.311 313.34)">
	<g transform="translate(178.06 235.01)">
		<path class="st0" d="M-5.9,0l-16.8-29.1L-39.4,0h-55.9l72.7-125.8L50,0H-5.9z"/>
	</g>
	<g transform="translate(178.06 235.01)">
		<path class="st1" d="M-5.9,0l-16.8-29.1L-39.4,0h-26.8l43.6-75.5L20.9,0H-5.9z"/>
	</g>
</g>
<g>
	<path class="st2" d="M114.9,198.9c0,1.3,0.3,2.4,1,3.1c0.7,0.7,1.7,1.1,2.9,1.1c1.3,0,2.2-0.3,2.9-1s1-1.6,1-2.9l0.2,3.2
		c-0.4,0.8-1,1.4-1.8,1.9s-1.9,0.8-3.2,0.8c-1.7,0-3-0.5-3.9-1.6s-1.4-2.6-1.4-4.6v-9.2h2.1V198.9z M122.8,189.6h2.1v15.2h-2.1
		V189.6z"/>
	<path class="st2" d="M133.6,205.1c0,0-0.5-0.3-1.5-0.8s-1.8-1.3-2.3-2.3c-0.5-1-0.8-2.2-0.8-3.7v-1.7c0-1.5,0.3-2.8,0.8-3.9
		s1.2-1.9,2.2-2.4s2.1-0.8,3.5-0.8c1.3,0,2.4,0.3,3.3,0.8s1.6,1.3,2.1,2.4s0.7,2.3,0.7,3.8v1.7h-11v-1.9h9v-0.1
		c0-1.5-0.4-2.7-1.1-3.5c-0.7-0.8-1.7-1.2-3-1.2c-1.4,0-2.5,0.4-3.3,1.3s-1.2,2.1-1.2,3.7v1.9c0,1.5,0.4,2.7,1.2,3.5
		c0.8,0.8,2,1.3,3.5,1.3c0.7,0,1.4-0.1,2.1-0.4s1.3-0.7,1.8-1.2l1.4,1.4c-0.7,0.7-1.6,1.3-2.5,1.7c-0.9,0.4-1.9,0.6-2.8,0.6
		C134.3,205.1,133.6,205.1,133.6,205.1z"/>
	<path class="st2" d="M144.8,202.4h2.4v2.4h-2.4V202.4z"/>
	<path class="st2" d="M149.7,209.1h1.7c0.6,0,1-0.2,1.3-0.5s0.5-0.9,0.5-1.5v-17.4h2.1V207c0,1.3-0.3,2.3-0.9,3s-1.5,1.1-2.6,1.1h-2
		V209.1z M153.1,183.5h2.1v2.1h-2.1V183.5z"/>
	<path class="st2" d="M163.8,205.1c0,0-0.4-0.1-1.2-0.2c-0.8-0.2-1.5-0.4-2.2-0.7s-1.3-0.7-1.8-1.1l1.2-1.5c0.8,0.6,1.7,1,2.6,1.3
		c0.9,0.3,1.7,0.5,2.5,0.5c1.5,0,2.6-0.2,3.4-0.7s1.2-1.2,1.2-2.1c0-0.7-0.2-1.2-0.6-1.5s-0.9-0.6-1.5-0.7s-1.4-0.2-2.4-0.3
		c-0.1,0-0.2,0-0.3,0c-0.1,0-0.2,0-0.3,0c0,0-0.1,0-0.1,0c0,0-0.1,0-0.1,0c-1-0.1-1.8-0.2-2.5-0.4s-1.2-0.6-1.7-1.1
		s-0.7-1.3-0.7-2.3c0-1,0.2-1.8,0.7-2.5s1.2-1.2,2.1-1.6s2-0.5,3.3-0.5c0.7,0,1.3,0.1,2,0.2c0.7,0.1,1.3,0.3,1.9,0.6
		c0.6,0.3,1.2,0.5,1.7,0.9l-1.2,1.5c-0.7-0.4-1.5-0.7-2.3-1c-0.8-0.2-1.5-0.3-2.2-0.3c-1.3,0-2.3,0.2-3,0.7s-1.1,1.2-1.1,2
		c0,0.6,0.2,1.1,0.6,1.4c0.4,0.3,0.9,0.5,1.4,0.6s1.4,0.2,2.4,0.2c0,0,0.1,0,0.1,0s0.1,0,0.1,0c0,0,0.1,0,0.1,0s0.1,0,0.1,0
		c1.1,0.1,2,0.2,2.7,0.4s1.4,0.6,1.9,1.2s0.8,1.5,0.8,2.6c0,1-0.3,1.8-0.8,2.5s-1.3,1.2-2.2,1.6c-1,0.4-2.2,0.5-3.5,0.5
		C164.2,205.1,163.8,205.1,163.8,205.1z"/>
</g>
<path class="st2" d="M91.5,183.5H94l7.4,16.1l7.3-16.1h2.5l-9.6,20.9h-0.5L91.5,183.5z"/>
</svg>
