<svg xmlns="http://www.w3.org/2000/svg" viewBox="0 0 96 93.6"><defs><style>.cls-1{fill:#35fa00;}.cls-2{fill:#072600;}</style></defs><title>Dreamweaver</title><g id="Layer_2" data-name="Layer 2"><g id="Layer_1-2" data-name="Layer 1"><rect class="cls-1" width="96" height="93.6"/><rect class="cls-2" x="4.8" y="4.8" width="86.4" height="84"/><path class="cls-1" d="M12.48,22.88c0-.32,0-.48.48-.48,1.44,0,5.92-.16,10.4-.16,13.44,0,20,8.64,20,21.28,0,17.6-11.52,23-20.48,23-3.36,0-8.32,0-10.08-.16-.32,0-.32-.16-.32-.48ZM19.68,60c1.12,0,2.08.16,3.36.16,7.36,0,12.8-5.28,13-16.48,0-10.88-5.6-15.2-12.64-15.2a26,26,0,0,0-3.68.16ZM70.4,66.24c-.48,0-.64-.16-.64-.64-1.92-11-3.68-18.88-4.32-24.16h0c-.8,5-2.4,13-5.12,24.32-.16.32-.32.48-.64.48h-6.4c-.48,0-.64,0-.8-.48l-7-31.52c0-.32,0-.48.48-.48h6.4c.32,0,.48.16.48.32,2.56,14.24,3.52,21.6,4,24.48h.32C57.6,55.2,59,48,61.92,34.24c.16-.32.16-.48.48-.48h6.72c.32,0,.32.16.48.48,2.4,13,4,21.12,4.32,24.48h.16c.64-4.16,1.44-9.92,4.32-24.64a.42.42,0,0,1,.48-.48H85c.32,0,.48.16.32.48L77.44,65.6c0,.32-.16.48-.64.48l-6.4.16Z"/></g></g></svg>