<?xml version="1.0" encoding="utf-8"?>
<!-- Generator: Adobe Illustrator 25.0.1, SVG Export Plug-In . SVG Version: 6.00 Build 0)  -->
<svg version="1.1" id="圖層_1" xmlns="http://www.w3.org/2000/svg" xmlns:xlink="http://www.w3.org/1999/xlink" x="0px" y="0px"
	 viewBox="0 0 42 41.5" style="enable-background:new 0 0 42 41.5;" xml:space="preserve">
<style type="text/css">
	.st0{fill:#0F4C81;}
</style>
<path class="st0" d="M35,2.6H7c-2.2,0-4,1.8-4,4v28c0,2.2,1.8,4,4,4h15.2V24.7h-4.7v-5.5h4.7v-4c0-4.6,2.8-7.2,7-7.2
	c1.4,0,2.8,0.1,4.2,0.2v4.9h-2.9c-2.3,0-2.7,1.1-2.7,2.6v3.5h5.4l-0.7,5.4h-4.7v14H35c2.2,0,4-1.8,4-4v-28C39,4.4,37.2,2.6,35,2.6z"
	/>
</svg>
