<?xml version="1.0" encoding="utf-8"?>
<!-- Generator: Adobe Illustrator 25.0.1, SVG Export Plug-In . SVG Version: 6.00 Build 0)  -->
<svg version="1.1" id="圖層_1" xmlns="http://www.w3.org/2000/svg" xmlns:xlink="http://www.w3.org/1999/xlink" x="0px" y="0px"
	 viewBox="0 0 40.2 39.4" style="enable-background:new 0 0 40.2 39.4;" xml:space="preserve">
<style type="text/css">
	.st0{fill:#0F4C81;}
</style>
<path class="st0" d="M12,2C6.5,2,2,6.5,2,12v16c0,5.5,4.5,10,10,10h16c5.5,0,10-4.5,10-10V12c0-5.5-4.5-10-10-10H12z M32,6
	c1.1,0,2,0.9,2,2s-0.9,2-2,2s-2-0.9-2-2S30.9,6,32,6z M20,10c5.5,0,10,4.5,10,10s-4.5,10-10,10s-10-4.5-10-10S14.5,10,20,10z M20,14
	c-3.3,0-6,2.7-6,6s2.7,6,6,6s6-2.7,6-6S23.3,14,20,14z"/>
</svg>
