<?xml version="1.0" encoding="utf-8"?>
<!-- Generator: Adobe Illustrator 25.0.1, SVG Export Plug-In . SVG Version: 6.00 Build 0)  -->
<svg version="1.1" id="圖層_1" xmlns="http://www.w3.org/2000/svg" xmlns:xlink="http://www.w3.org/1999/xlink" x="0px" y="0px"
	 viewBox="0 0 50 50" style="enable-background:new 0 0 50 50;" xml:space="preserve">
<style type="text/css">
	.st0{fill:#0F4C81;}
</style>
<path class="st0" d="M9,4C6.2,4,4,6.2,4,9v32c0,2.8,2.2,5,5,5h32c2.8,0,5-2.2,5-5V9c0-2.8-2.2-5-5-5H9z M25,11c8.3,0,15,5.4,15,11.9
	c0,2.6-1,5-3.2,7.4c-1.6,1.8-4.1,3.7-6.5,5.4c-2.4,1.6-4.5,2.9-5.3,3.2C24.7,39,24.4,39,24.2,39c-0.7,0-0.6-0.7-0.6-1
	c0-0.2,0.2-1.3,0.2-1.3c0-0.4,0.1-1-0.1-1.3c-0.2-0.4-0.8-0.6-1.3-0.7C15.3,33.8,10,28.8,10,22.9C10,16.4,16.7,11,25,11z M24,19
	c-0.5,0-1,0.4-1,1v6c0,0.6,0.4,1,1,1s1-0.4,1-1v-2.9l2.2,3.5C27.8,27.4,29,27,29,26v-6c0-0.6-0.4-1-1-1s-1,0.4-1,1v3l-2.2-3.6
	C24.6,19.1,24.3,19,24,19z M15,19c-0.6,0-1,0.4-1,1v6c0,0.6,0.4,1,1,1h3c0.6,0,1-0.4,1-1s-0.4-1-1-1h-2v-5C16,19.4,15.6,19,15,19z
	 M21,19c-0.6,0-1,0.4-1,1v6c0,0.6,0.4,1,1,1s1-0.4,1-1v-6C22,19.4,21.6,19,21,19z M31,19c-0.6,0-1,0.4-1,1v6c0,0.6,0.4,1,1,1h3
	c0.6,0,1-0.4,1-1s-0.4-1-1-1h-2v-1h2c0.6,0,1-0.4,1-1s-0.4-1-1-1h-2v-1h2c0.6,0,1-0.4,1-1s-0.4-1-1-1H31z"/>
</svg>
